<svg width="157" height="189" viewBox="0 0 157 189" fill="none" xmlns="http://www.w3.org/2000/svg">
<path d="M67.8584 8.0748C71.0251 4.5748 79.4584 -0.425203 87.8584 7.5748" stroke="#0000FE" stroke-width="3.5"/>
<path d="M46.8584 133.086C51.0251 132.379 60.6584 132.298 65.8584 141.631C72.3584 153.298 83.8584 149.586 88.3584 144.813" stroke="#0000FE" stroke-width="3.5"/>
<path d="M68.9515 140.492C72.6537 138.453 81.4181 135.568 89.7051 142.312C99.8584 150.575 108.679 143.562 111.359 137.575" stroke="#0000FE" stroke-width="3.5"/>
<path d="M91.0193 139.461C93.8244 136.3 100.969 131.084 111.183 134.221C125.358 138.575 129.478 129.04 129.996 122.501" stroke="#0000FE" stroke-width="3.5"/>
<path d="M112.858 131.075C112.858 126.575 119.69 119.658 130.358 119.075C145.165 118.266 144.358 107.075 143.358 102.075" stroke="#0000FE" stroke-width="3.5"/>
<path d="M129.691 116.647C128.096 112.439 132.032 103.55 141.801 99.2231C155.36 93.2179 150.639 83.0395 147.931 78.7187" stroke="#0000FE" stroke-width="3.5"/>
<path d="M43.3587 20.5748C43.0308 25.0628 38.0411 33.2714 27.3585 33.0748C12.5321 32.802 11.3584 45.0747 12.7746 50.4898" stroke="#0000FE" stroke-width="3.5"/>
<path d="M143.359 74.0749C139.506 71.7508 136.386 62.575 140.955 53.9713C148.601 39.5752 135.859 33.5749 132.859 33.5749" stroke="#0000FE" stroke-width="3.5"/>
<path d="M64.8578 12.5748C63.4631 16.8532 54.3581 21.5747 44.8584 18.5747C29.3144 13.666 25.4941 27.1403 26.1709 30.0629" stroke="#0000FE" stroke-width="3.5"/>
<path d="M126.858 33.0748C123.025 32.9082 114.658 29.8748 111.858 19.0748C109.058 8.27484 102.358 6.24151 99.3584 6.57484C97.0251 6.57483 91.5584 7.4748 88.3584 11.0748C84.3584 15.5748 74.3584 17.5748 65.8584 10.0748C57.3584 2.5748 48.8584 7.5748 44.8584 15.0748" stroke="#0000FE" stroke-width="3.5"/>
<path d="M26.341 36.2852C27.3584 40.5747 25.3893 50.0175 15.211 53.267C1.08454 57.777 4.77584 69.9028 7.85834 74.5747" stroke="#0000FE" stroke-width="3.5"/>
<path d="M15.6293 56.6121C17.9178 60.3801 18.5901 69.4956 10.2674 76.1954C-0.141602 84.5747 6.98734 95.0785 11.3583 98.5747" stroke="#0000FE" stroke-width="3.5"/>
<path d="M12.3576 78.5751C16.8584 83.075 18.5011 89.575 13.3578 101.575C8.85741 112.075 18.3318 118.745 23.7606 120.108" stroke="#0000FE" stroke-width="3.5"/>
<path d="M17.3698 100.107C24.3584 104.575 26.9502 109.033 26.3579 122.075C25.8584 133.075 34.8583 135.575 41.3587 135.075" stroke="#0000FE" stroke-width="3.5"/>
<path d="M29.2362 119.607C37.3504 121.329 41.3455 124.588 45.3827 137.004C48.7877 147.476 58.0917 146.648 63.9998 143.891" stroke="#0000FE" stroke-width="3.5"/>
<path d="M114.858 17.5747C119.525 16.908 130.358 18.0747 129.858 32.5747C129.858 41.5746 128.358 47.5746 142.358 53.5746C146.858 55.0746 157.858 64.5746 146.358 76.0746C142.692 78.9079 136.358 85.0746 140.358 96.5746" stroke="#0000FE" stroke-width="3.5"/>
<path d="M91.3584 12.5747C93.1917 15.5747 99.3584 21.1747 109.358 19.5747" stroke="#0000FE" stroke-width="3.5"/>
<path d="M70.1709 30.2711C70.768 31.3467 71.6275 32.7974 72.5322 34.1198C73.0526 34.8803 73.5931 35.6071 74.1104 36.1989C74.5223 36.6701 74.9481 37.0862 75.3574 37.358V49.0162C75.0011 48.8103 74.5422 48.3941 74.0107 47.7721C73.398 47.0549 72.7402 46.1309 72.0898 45.1276C70.7901 43.1222 69.5488 40.8395 68.8047 39.3512L67.9102 39.7985C68.666 41.3101 69.9249 43.627 71.25 45.6715C71.9122 46.6931 72.5981 47.6574 73.251 48.4215C73.887 49.1659 74.5487 49.7894 75.1719 50.0387L75.3574 49.5748V57.733C73.9228 56.8172 72.4673 55.0894 71.1748 53.1364C69.6865 50.8875 68.4752 48.4405 67.8184 46.8805L66.8965 47.2692C67.573 48.8758 68.8125 51.3788 70.3408 53.6881C71.7752 55.8554 73.5229 57.9406 75.3574 58.8864V68.6315C74.3624 67.9073 73.0846 66.7922 71.8779 65.3531C70.3337 63.5114 68.9247 61.1672 68.3467 58.4703L67.3682 58.6793C67.9901 61.5819 69.4976 64.071 71.1113 65.9957C72.6141 67.788 74.2302 69.1103 75.3574 69.8453V80.2086C75.0716 79.975 74.7642 79.652 74.4443 79.2369C73.8743 78.4972 73.3086 77.5371 72.7783 76.4869C71.7187 74.3882 70.8283 71.9897 70.334 70.4244L69.3809 70.7252C69.8866 72.3266 70.7954 74.7786 71.8857 76.9381C72.4305 78.017 73.0287 79.0381 73.6523 79.8473C74.1691 80.5177 74.7416 81.0917 75.3574 81.4039V87.0748H76.3574V84.3756C77.5689 83.7299 79.3169 82.5582 80.9805 80.9459C82.7752 79.2064 84.502 76.9291 85.335 74.2223L84.3799 73.9274C83.6129 76.4202 82.0059 78.5595 80.2842 80.2281C78.8972 81.5724 77.4525 82.5909 76.3574 83.2301V75.0748L76.6533 75.4781C77.9312 74.541 79.933 72.8166 81.8203 70.6676C83.7033 68.5234 85.505 65.9192 86.335 63.2223L85.3799 62.9274C84.6097 65.4303 82.9112 67.9101 81.0693 70.0074C79.3744 71.9375 77.5839 73.5107 76.3574 74.4469V64.9059C78.7476 63.8654 83.3667 60.6289 85.332 54.733L84.3828 54.4166C82.632 59.6692 78.6375 62.6795 76.3574 63.8033V54.0748L76.5811 54.5221C78.7102 53.4575 80.4382 51.3159 81.7256 49.1422C83.02 46.9566 83.91 44.667 84.3369 43.2155L83.3779 42.9342C82.9715 44.316 82.1114 46.5266 80.8643 48.6324C79.6605 50.665 78.1322 52.5332 76.3574 53.5074V42.5748L76.6826 42.9547C78.1733 41.677 79.5022 39.3357 80.5508 37.0045C81.5307 34.826 82.2941 32.5842 82.7373 31.0573C85.8915 37.6713 88.8574 47.3521 88.8574 59.5748C88.8574 77.9745 81.5242 86.2413 77.8574 88.0748V102.575C82.2612 83.0727 98.9091 72.5991 111.656 68.0416C110.781 68.9642 110.388 70.2658 110.236 71.4879C110.09 72.6676 110.159 73.8479 110.288 74.7145L102.803 81.6705C102.796 80.2813 103.114 78.5668 103.565 76.8785C104.108 74.8465 104.825 72.9195 105.316 71.7721L104.857 71.5748L104.397 71.3776C103.889 72.5634 103.157 74.5365 102.6 76.6207C102.056 78.6554 101.662 80.8627 101.853 82.5543L96.8125 87.2389C96.775 85.3363 97.1828 83.2678 97.749 81.3815C98.3932 79.2357 99.2301 77.3666 99.7979 76.3121L99.3574 76.0748L98.918 75.8375C98.3191 76.9497 97.4551 78.881 96.791 81.0934C96.1285 83.3003 95.6521 85.8288 95.8604 88.1198L95.8652 88.1188L92.6309 91.1246C92.5791 91.1121 92.5278 91.1018 92.4785 91.0895L92.4199 91.3209L89.8115 93.7448C89.7685 88.1483 91.7389 84.1852 92.7529 82.8815L92.3574 82.5748L91.9629 82.2682C90.7493 83.8288 88.5569 88.3681 88.835 94.653L82.8164 100.247C82.8102 98.5781 83.2785 96.8063 83.9219 95.1979C84.664 93.3427 85.6181 91.7537 86.2617 90.8688L85.4531 90.2809C84.7634 91.2292 83.7677 92.8904 82.9932 94.8268C82.2503 96.6839 81.6938 98.84 81.8408 100.883L80.0039 102.721L79.4492 103.276L79.5273 103.304L78.0166 104.709L78.6982 105.441L80.5918 103.68C82.7519 104.352 87.5219 105.086 92.5049 103.552L92.21 102.597C87.8513 103.938 83.6579 103.449 81.4502 102.881L86.0498 98.6071C87.6773 98.8443 90.1727 99.0437 92.7207 98.9117C95.3948 98.7732 98.2178 98.2689 100.135 96.9908L99.5801 96.1588C97.8971 97.2808 95.3031 97.7763 92.6689 97.9127C90.5863 98.0206 88.5356 97.8992 87.002 97.7223L92.9238 92.2194C94.2856 92.5171 96.1832 92.8241 98.1318 92.9244C100.414 93.0419 102.859 92.8832 104.581 92.0221L104.134 91.1276C102.656 91.8664 100.434 92.0412 98.1836 91.9254C96.6044 91.8441 95.0563 91.6208 93.8232 91.3824L99.9873 85.6539C101.966 86.3302 106.499 86.9792 111.537 85.0416L111.178 84.108C106.792 85.7946 102.834 85.4058 100.834 84.8668L107.005 79.1315C109.08 79.6576 111.409 79.2541 113.455 78.5612C115.516 77.8633 117.359 76.8481 118.492 76.0846C115.413 84.4859 109.917 90.5151 103.357 97.0748C96.1576 104.275 87.0243 107.075 83.3574 107.575C82.5242 107.575 80.6575 107.475 79.8574 107.075C79.0576 106.675 78.1909 106.908 77.8574 107.075V132.075H74.8574V110.575L72.3574 108.075C68.6908 108.741 58.5574 106.675 47.3574 93.0748C37.0523 80.5615 34.4239 69.0641 34.3291 63.8014L42.9365 73.6383C41.8764 73.6414 40.7532 73.4036 39.7129 73.0621C38.3947 72.6294 37.256 72.0472 36.6221 71.651L36.0928 72.4987C36.7921 72.9357 38.0032 73.5534 39.4014 74.0123C40.7448 74.4533 42.3052 74.7606 43.7676 74.5885L50.3467 82.1071C48.3814 82.201 46.3449 81.783 44.5527 81.1881C42.6207 80.5468 41.0078 79.7141 40.126 79.153L39.5889 79.9967C40.5404 80.6022 42.2277 81.4703 44.2373 82.1373C46.2446 82.8036 48.6092 83.2813 50.9023 83.0729L50.8682 82.7037L55.5986 88.109C50.066 88.2846 45.665 86.2298 44.1445 85.1656L43.5703 85.984C45.3177 87.2072 50.2625 89.4824 56.3906 89.0739L56.3857 89.0094L62.2109 95.6656C60.4211 95.864 58.1844 95.4192 56.0127 94.7115C53.6315 93.9356 51.4112 92.8754 50.1025 92.1393L49.6123 93.0104C50.9703 93.7742 53.2502 94.8637 55.7021 95.6627C58.1357 96.4557 60.8229 96.9914 62.9551 96.5651L62.9424 96.5016L65.3975 99.3073C65.3871 99.3643 65.3783 99.4214 65.3672 99.4772L65.583 99.5201L68.3428 102.673C67.8046 102.76 67.1599 102.744 66.4375 102.636C65.5442 102.503 64.5693 102.237 63.5957 101.902C61.6474 101.231 59.7506 100.295 58.6055 99.6403L58.1094 100.509C59.2976 101.188 61.2513 102.152 63.2695 102.847C64.2791 103.195 65.3168 103.48 66.29 103.626C67.1266 103.751 67.9435 103.776 68.665 103.633C70.1258 105.453 70.822 106.246 71.0039 106.428L71.6826 107.107L71.7725 106.594L72.4814 107.404L73.2334 106.746L71.9824 105.317C72.1912 103.888 72.3841 101.944 72.3945 99.9655C72.4071 97.5837 72.161 95.0638 71.3047 93.3512L70.4102 93.7985C71.1538 95.2858 71.407 97.5997 71.3945 99.9596C71.3863 101.515 71.2622 103.052 71.1084 104.317L66.459 99.0035C66.7404 97.014 66.6451 94.5101 66.4053 92.149C66.1364 89.5028 65.6828 86.9835 65.3457 85.4664L64.3691 85.6832C64.6987 87.1661 65.1457 89.647 65.4102 92.2506C65.6125 94.243 65.7029 96.2769 65.5654 97.983L60.0371 91.6647L60.3047 91.7985C60.5535 91.3008 60.6768 90.51 60.7402 89.6393C60.8055 88.7442 60.8116 87.6821 60.7822 86.5865C60.7234 84.394 60.5222 82.029 60.3545 80.5192L59.3604 80.6305C59.5259 82.1206 59.7244 84.4558 59.7822 86.6129C59.8112 87.6923 59.805 88.7184 59.7432 89.567C59.6954 90.2227 59.6158 90.7292 59.5156 91.069L54.3486 85.1637C54.7625 83.2822 54.6713 80.9312 54.4033 78.7877C54.1332 76.6272 53.6778 74.6267 53.3379 73.4371L52.377 73.7125C52.7037 74.8563 53.1479 76.8059 53.4111 78.9117C53.6376 80.7239 53.723 82.6147 53.5039 84.1979L47.3926 77.2135C47.5113 75.5736 47.2204 73.4541 46.8096 71.4615C46.4278 69.6099 45.9336 67.8232 45.5352 66.5504C61.4495 74.19 70.2978 87.5436 72.3574 92.0748C74.8574 97.5748 73.8574 104.075 73.8574 106.075C73.8574 107.675 74.5241 108.075 74.8574 108.075V87.5748C71.5241 84.9082 64.8574 75.0748 64.8574 57.0748C64.8574 45.6285 67.3597 36.5814 70.1709 30.2711ZM120.027 70.7936C119.635 72.5885 119.146 74.2772 118.568 75.8795L118.073 75.1637C117.023 75.8905 115.19 76.9181 113.135 77.6139C111.396 78.2025 109.553 78.533 107.908 78.2926L110.507 75.8766L110.55 76.0895L111.211 75.4283L114.114 72.524L115.609 71.1344C116.44 71.2669 117.431 71.2123 118.334 71.0953C118.938 71.017 119.523 70.9048 120.027 70.7936ZM39.4424 64.0514C41.2572 64.6733 42.9965 65.3748 44.6611 66.1393L44.3828 66.233C44.794 67.4667 45.3887 69.5229 45.8301 71.6637C46.1499 73.2149 46.3812 74.7787 46.416 76.0973L39.873 68.6188C40.2665 67.518 40.16 66.3311 39.8906 65.3209C39.7694 64.8662 39.6104 64.437 39.4424 64.0514ZM115.31 70.0475L115.204 70.0211L115.004 70.2213L113.433 71.7916L111.195 73.8707C111.138 73.1927 111.131 72.3993 111.229 71.6119C111.389 70.3189 111.821 69.1444 112.669 68.4655L112.357 68.0748L112.182 67.8551C115.043 66.8599 117.694 66.1678 119.945 65.7389L115.31 70.0475ZM120.772 66.3365C120.634 67.5052 120.458 68.631 120.248 69.7184C119.694 69.8551 118.965 70.0057 118.205 70.1041C117.653 70.1756 117.104 70.2148 116.604 70.2096L120.772 66.3365ZM34.3574 62.5748C35.6386 62.8812 36.8864 63.2304 38.1025 63.6129C38.3838 64.0915 38.7147 64.7944 38.9238 65.5787C39.1124 66.286 39.1945 67.0251 39.0801 67.7125L34.7334 62.7457L34.3311 63.0963C34.3363 62.9123 34.3453 62.7383 34.3574 62.5748ZM79.5605 25.3922C80.5025 26.8128 81.5218 28.5612 82.5273 30.6217L81.876 30.441C81.465 31.9204 80.6726 34.2958 79.6387 36.5944C78.6827 38.7195 77.5479 40.7096 76.3574 41.8912V29.4293C76.719 29.272 77.0513 29.0323 77.3486 28.7574C77.7499 28.3866 78.1149 27.9287 78.4346 27.4547C78.8988 26.7663 79.284 26.0169 79.5605 25.3922ZM75.3574 36.0651C75.2035 35.9152 75.0377 35.7402 74.8633 35.5406C74.3818 34.9899 73.8659 34.2985 73.3574 33.5553C72.3406 32.0691 71.375 30.4094 70.7979 29.3375L70.5322 29.4801C72.2179 25.8654 73.9795 23.2245 75.3574 21.6285V36.0651ZM76.3574 21.4528C76.9924 22.0045 77.8768 22.9975 78.8848 24.4088C78.6444 25.0473 78.1885 26.0304 77.6055 26.8951C77.3128 27.3292 76.9965 27.7212 76.6699 28.0231C76.5645 28.1205 76.4595 28.2051 76.3574 28.2789V21.4528Z" fill="#008503"/>
<path d="M88.998 149C90.6647 149 93.898 150.4 93.498 156H111.998L113.498 158H110.998L110.498 158.134V170.5L107.998 168.5V165C106.998 165.667 104.598 166.5 102.998 164.5C102.998 165 102.698 166 101.498 166C102.498 167.167 104.598 169.8 104.998 171H103.498L97.998 164V162C98.498 161.667 99.598 161.2 99.998 162C100.498 163 101.266 163 100.998 162C100.784 161.2 100.909 159 100.998 158H94.998V170.5L92.998 168.5V162.5H88.998C89.6647 163.167 90.998 164.9 90.998 166.5C90.998 168.1 88.6647 168.5 87.498 168.5C86.3314 168.333 83.498 166.7 81.498 161.5C81.8314 161 82.598 160.3 82.998 161.5C83.498 163 85.498 166.402 86.998 166C88.498 165.598 89.498 164 85.998 161.5V160.5H92.998V158H78.498V170.5L75.998 169V158H72.498V170.5L70.498 169V166.5C70.3314 166.167 69.898 165.6 69.498 166C68.998 166.5 68.998 167.5 67.498 167.5C65.998 167.5 62.998 165 62.998 162.5V158H59.498V170.5L56.998 169.057V158H51.998V164C51.6647 164.5 50.798 165.5 49.998 165.5L53.498 170.5H51.998L46.498 163.5C46.6647 162.833 47.198 161.6 47.998 162C48.998 162.5 49.498 163 49.498 162V158H44.998L43.998 156H90.998C90.6647 155.333 89.398 154 86.998 154C86.498 154 85.498 153.6 85.498 152V151H86.998C88.498 152 91.698 154.4 92.498 156H92.998C92.998 154.833 92.198 152.2 88.998 151V149ZM65.998 165H66.998C68.598 165 69.6647 163.667 69.998 163V158H65.998V165ZM103.498 163.5H105.998C107.998 163.5 108.498 162.833 108.498 162.5V158.134L107.998 158H103.498V163.5Z" fill="#B40001"/>
<path d="M43.9727 188.976V188.511L46.387 187.556V175.419L43.9727 174.44V174H48.8666L59.7312 184.449V175.419L57.2516 174.44V174H63.9727V174.465L61.5583 175.419V189H60.188L48.2467 177.475V187.556L50.7263 188.535V188.976H43.9727Z" fill="#B50100"/>
<path d="M66.998 189V188.534L69.366 187.578V175.422L66.998 174.441V174H74.998V174.466L72.63 175.422V187.578L74.998 188.559V189H66.998Z" fill="#B50100"/>
<path d="M77.998 189V188.534L80.3851 187.578V175.422L77.998 174.441V174H86.2561C88.4066 174 90.0626 174.327 91.2239 174.98C92.4066 175.634 92.998 176.623 92.998 177.946C92.998 178.812 92.654 179.588 91.9658 180.275C91.2991 180.961 90.3529 181.5 89.1271 181.892C87.9228 182.268 86.5249 182.456 84.9335 182.456C84.7185 182.456 84.5034 182.456 84.2884 182.456C84.0733 182.44 83.869 182.423 83.6755 182.407V187.578L86.6432 188.559V189H77.998ZM85.5142 181.402C86.8905 181.402 87.9228 181.173 88.611 180.716C89.3206 180.258 89.6755 179.515 89.6755 178.485C89.6755 177.325 89.2239 176.451 88.3206 175.863C87.4389 175.275 86.2776 174.98 84.8368 174.98H83.6755V181.255C83.955 181.288 84.2561 181.32 84.5787 181.353C84.9013 181.386 85.2131 181.402 85.5142 181.402Z" fill="#B50100"/>
<path d="M95.998 189V188.534L98.5972 187.578V175.422L95.998 174.441V174H104.814C105.915 174 106.886 174.074 107.729 174.221C108.596 174.351 109.333 174.564 109.942 174.858C110.551 175.136 111.019 175.487 111.347 175.912C111.675 176.32 111.839 176.802 111.839 177.358C111.839 178.011 111.546 178.657 110.961 179.294C110.375 179.915 109.345 180.438 107.87 180.863C109.626 181.092 110.914 181.525 111.734 182.162C112.577 182.783 112.998 183.526 112.998 184.392C112.998 185.405 112.6 186.255 111.804 186.941C111.031 187.611 109.966 188.126 108.608 188.485C107.273 188.828 105.774 189 104.112 189H95.998ZM105.165 187.995C106.664 187.995 107.741 187.791 108.397 187.382C109.076 186.958 109.415 186.214 109.415 185.152C109.415 184.466 109.216 183.894 108.818 183.436C108.42 182.979 107.882 182.619 107.203 182.358C106.547 182.096 105.786 181.925 104.92 181.843C104.053 181.745 103.14 181.712 102.18 181.745V187.75C102.648 187.815 103.128 187.873 103.62 187.922C104.112 187.971 104.627 187.995 105.165 187.995ZM104.322 180.765C105.282 180.765 106.044 180.683 106.605 180.52C107.167 180.34 107.577 180.062 107.835 179.686C108.092 179.31 108.221 178.82 108.221 178.216C108.221 177.382 107.987 176.737 107.519 176.279C107.05 175.806 106.371 175.471 105.482 175.275C104.592 175.062 103.491 174.964 102.18 174.98V180.569C102.508 180.634 102.871 180.683 103.269 180.716C103.667 180.748 104.018 180.765 104.322 180.765Z" fill="#B50100"/>
</svg>
