<svg xmlns="http://www.w3.org/2000/svg" xmlns:xlink="http://www.w3.org/1999/xlink" width="398.444" height="433.506" viewBox="0 0 398.444 433.506">
  <defs>
    <radialGradient id="radial-gradient" cx="0.454" cy="0.218" r="0.628" gradientUnits="objectBoundingBox">
      <stop offset="0" stop-color="#f90" stop-opacity="0.8"/>
      <stop offset="1" stop-color="#fff" stop-opacity="0"/>
    </radialGradient>
  </defs>
  <path id="path914" d="M371.752,72.892a93.3,93.3,0,0,0-58.5,20.866,93.263,93.263,0,0,0-63.992-20.705C226.8,74.359,174.275,74.419,171.364,46.9c-1.775-16.8-14.178-19.75-23.231-21.9-11.572-2.75-20.712-4.925-20.712-30.184V-203.455c0-25.264,9.14-27.434,20.712-30.184,9.056-2.157,21.456-5.1,23.231-21.9,2.91-27.521,55.458-27.457,77.894-26.151A93.062,93.062,0,0,0,313.25-302.41a92.981,92.981,0,0,0,64,20.715c22.44-1.309,74.974-1.37,77.881,26.151,1.775,16.8,14.177,19.747,23.231,21.9,11.572,2.75,20.711,4.92,20.711,30.184V-5.189c0,25.26-9.139,27.434-20.707,30.184-9.057,2.153-21.46,5.1-23.235,21.9-2.907,27.524-55.441,27.46-77.881,26.154q-2.8-.161-5.5-.161m-58.5,39.558,4.846-5.071c.208-.217,22.718-23.046,58.371-20.949,56.365,3.255,89.038-10.26,91.986-38.126.742-7.033,3.716-8.068,13.007-10.275,12.348-2.937,31.007-7.371,31.007-43.219V-203.455c0-35.847-18.659-40.285-31.007-43.219-9.292-2.211-12.265-3.245-13.007-10.276-2.947-27.863-35.6-41.394-91.986-38.121-35.506,2.053-58.164-20.742-58.385-20.973l-4.85-5.011-4.813,5.014c-.3.308-22.738,23.053-58.385,20.97-56.4-3.269-89.048,10.259-91.995,38.121-.743,7.03-3.718,8.065-13.005,10.276-12.352,2.937-31.011,7.372-31.011,43.219V-5.189c0,35.848,18.659,40.282,31.008,43.219,9.291,2.207,12.265,3.242,13.009,10.275,2.944,27.866,35.6,41.391,91.995,38.126,35.968-2.2,58.154,20.719,58.372,20.949l4.843,5.071" transform="translate(-114.024 321.055)" fill="url(#radial-gradient)"/>
</svg>
