<svg version="1.2" xmlns="http://www.w3.org/2000/svg" viewBox="0 0 243 65" width="243" height="65">
	<title>booking_payment_bg</title>
	<defs>
		<linearGradient id="g1" x2="1" gradientUnits="userSpaceOnUse" gradientTransform="matrix(242.811,0,0,63.008,-139.617,29.862)">
			<stop offset="0" stop-color="#ff6e00"/>
			<stop offset="1" stop-color="#ff6e00"/>
		</linearGradient>
	</defs>
	<style>
		.s0 { fill: url(#g1) } 
	</style>
	<g>
		<path id="path932-2" class="s0" d="m0 31.5q0.9-1 1.6-2.1 0.7-1.1 1.2-2.3 0.5-1.3 0.7-2.6 0.3-1.3 0.3-2.6 0-0.4 0-0.8-0.1-1.2-0.1-2.5c0-5.6 1.2-11 5.3-11.4 4.7-0.5 0-7.2 8.7-7.2h207.4c8.7 0 4 6.7 8.7 7.2 4.1 0.4 5.3 5.8 5.3 11.4q0 1.3-0.1 2.5 0 0.4 0 0.8 0 1.3 0.3 2.6 0.2 1.3 0.7 2.6 0.5 1.2 1.2 2.3 0.7 1.1 1.6 2.1-0.9 1-1.6 2.1-0.7 1.1-1.2 2.3-0.5 1.3-0.7 2.6-0.3 1.3-0.3 2.6 0 0.4 0 0.8 0.1 1.2 0.1 2.5c0 5.6-1.2 11-5.3 11.4-4.7 0.5 0 7.2-8.7 7.2h-207.4c-8.7 0-4-6.7-8.7-7.2-4.1-0.4-5.3-5.8-5.3-11.4q0-1.3 0.1-2.5 0-0.4 0-0.8 0-1.3-0.3-2.6-0.2-1.3-0.7-2.6-0.5-1.2-1.2-2.3-0.7-1.1-1.6-2.1z"/>
	</g>
</svg>