<svg version="1.2" xmlns="http://www.w3.org/2000/svg" viewBox="0 0 300 300" width="300" height="300">
	<title>border</title>
	<defs>
		<clipPath clipPathUnits="userSpaceOnUse" id="cp1">
			<path d="m0 0h300v300h-300z"/>
		</clipPath>
		<clipPath clipPathUnits="userSpaceOnUse" id="cp2">
			<path d="m0 0.15h299.74v299.85h-299.74z"/>
		</clipPath>
		<radialGradient id="g1" cx="0" cy="0" r="1" gradientUnits="userSpaceOnUse" gradientTransform="matrix(106.408,0,0,106.408,149.87,10.205)">
			<stop offset="0" stop-color="#ffdd00" stop-opacity="1"/>
			<stop offset="1" stop-color="#ffab0c" stop-opacity=".3"/>
		</radialGradient>
	</defs>
	<style>
		.s0 { fill: url(#g1) } 
	</style>
	<g id="Clip-Path: border" clip-path="url(#cp1)">
		<g id="border">
			<g id="Group_28581">
				<g id="Clip-Path: Group_28580" clip-path="url(#cp2)">
					<g id="Group_28580">
						<path id="Path_95707" class="s0" d="m249 300.1h-199.1l-1.3-3.1c-10.1-24.7-24.8-40.7-43.8-41.5l-4.8-0.2 0.2-107-0.2-103.4 4.8-0.2c19-0.9 33.7-16.8 43.8-41.6l1.3-3.1h202.6l1.2 3.2c0.1 0.3 14.4 39 41.1 39.4l4.9 0.1v214.8h-4.9c-26.7 0.4-41 39.1-41.1 39.5l-1.2 3.1zm-192.5-10h189.2c4.3-9.3 18.6-38.7 44-42.2v-195.7c-25.4-3.4-39.7-32.9-44-42.2h-189.2c-7.9 17.9-22.1 40.9-46.6 44.2l0.2 97.7-0.2 94c14.9 2.1 33.5 14.4 46.6 44.2z"/>
					</g>
				</g>
			</g>
		</g>
	</g>
</svg>