<svg xmlns="http://www.w3.org/2000/svg" xmlns:xlink="http://www.w3.org/1999/xlink" width="417.186" height="453.898" viewBox="0 0 417.186 453.898">
  <defs>
    <radialGradient id="radial-gradient" cx="0.454" cy="0.218" r="0.628" gradientUnits="objectBoundingBox">
      <stop offset="0" stop-color="#f90" stop-opacity="0.8"/>
      <stop offset="1" stop-color="#fff" stop-opacity="0"/>
    </radialGradient>
  </defs>
  <path id="path914" d="M383.876,91.424a97.692,97.692,0,0,0-61.254,21.848,97.65,97.65,0,0,0-67-21.679c-23.513,1.367-78.511,1.43-81.559-27.385-1.859-17.59-14.844-20.679-24.323-22.934-12.116-2.879-21.686-5.156-21.686-31.6V-197.923c0-26.452,9.57-28.724,21.686-31.6,9.482-2.258,22.465-5.344,24.323-22.935,3.047-28.815,58.066-28.749,81.559-27.381a97.439,97.439,0,0,0,67-21.69,97.355,97.355,0,0,0,67.009,21.69c23.5-1.371,78.5-1.434,81.545,27.381,1.859,17.59,14.844,20.676,24.323,22.935,12.116,2.879,21.685,5.152,21.685,31.6V9.669c0,26.448-9.568,28.725-21.681,31.6-9.484,2.255-22.469,5.344-24.328,22.934-3.044,28.819-58.049,28.752-81.545,27.385q-2.93-.168-5.755-.169m-61.254,41.419,5.074-5.31c.217-.227,23.787-24.13,61.117-21.934,59.017,3.408,93.227-10.742,96.313-39.919.777-7.364,3.891-8.448,13.619-10.759,12.929-3.075,32.466-7.718,32.466-45.252V-197.923c0-37.534-19.537-42.18-32.466-45.252-9.729-2.315-12.842-3.4-13.619-10.759-3.086-29.173-37.271-43.341-96.313-39.915-37.176,2.15-60.9-21.718-61.131-21.96l-5.078-5.246-5.039,5.25c-.316.323-23.808,24.137-61.131,21.956-59.055-3.423-93.236,10.741-96.322,39.915-.778,7.361-3.893,8.444-13.617,10.759-12.933,3.076-32.47,7.719-32.47,45.252V9.669c0,37.534,19.537,42.177,32.466,45.252,9.728,2.311,12.842,3.394,13.621,10.759,3.083,29.176,37.278,43.338,96.322,39.919,37.66-2.3,60.889,21.693,61.117,21.934l5.071,5.31" transform="translate(-114.024 321.055)" fill="url(#radial-gradient)"/>
</svg>
