<svg version="1.2" xmlns="http://www.w3.org/2000/svg" viewBox="0 0 200 200" width="200" height="200">
	<title>border</title>
	<style>
		.s0 { fill: #ff6e00 } 
	</style>
	<path id="Layer 3" class="s0" d="m55 0c0 0-18.2-0.5-20 10-1.8 10.5-4.3 12.1-12 14-7.7 1.9-13 11.1-13 31 0 19.9-1.1 31.4-11 44 0 0 11 15.7 11 32 0 16.3-0.7 39.6 10 43 10.7 3.4 12.9 4.2 15 13 2.1 8.8 7.1 13 24 13 16.9 0 76.4 0 85 0 8.6 0 18.9-1.8 21-12 2.1-10.2 5.4-10.1 10-11 4.6-0.9 15-11.3 15-41 0-29.7 10-35 10-35 0 0-10-10.7-10-25 0-14.3-0.9-38.3-6-45-5.1-6.7-12-8-12-8 0 0-6.2-0.9-7-9-0.8-8.1-7.8-14-21-14-13.2 0-89 0-89 0z"/>
</svg>