<svg version="1.2" xmlns="http://www.w3.org/2000/svg" viewBox="0 0 200 200" width="200" height="200">
	<title>outer_white_button</title>
	<defs>
		<filter x="-50%" y="-50%" width="200%" height="200%" id="f1" ><feDropShadow dx="-5.51091059616309e-16" dy="9" stdDeviation="3.75" flood-color="#000000" flood-opacity=".3"/></filter>
	</defs>
	<style>
		.s0 { filter: url(#f1);fill: #ffffff } 
	</style>
	<path id="Layer 3" class="s0" d="m55 0c0 0-18.2-0.5-20 9.5-1.8 10-4.3 11.5-12 13.3-7.7 1.8-13 10.5-13 29.4 0 19-1.1 29.9-11 41.8 0 0 11 15 11 30.4 0 15.5-0.7 37.7 10 40.9 10.7 3.2 12.9 4 15 12.3 2.1 8.4 7.1 12.4 24 12.4 16.9 0 76.4 0 85 0 8.6 0 18.9-1.7 21-11.4 2.1-9.7 5.4-9.6 10-10.5 4.6-0.8 15-10.7 15-38.9 0-28.2 10-33.3 10-33.3 0 0-10-10.1-10-23.7 0-13.6-0.9-36.4-6-42.8-5.1-6.3-12-7.6-12-7.6 0 0-6.2-0.8-7-8.5-0.8-7.7-7.8-13.3-21-13.3-13.2 0-89 0-89 0z"/>
</svg>