<svg xmlns="http://www.w3.org/2000/svg" width="176.39" height="13.743" viewBox="0 0 176.39 13.743">
  <g id="Group_28038" data-name="Group 28038" transform="translate(7 13.743) rotate(-90)">
    <g id="Group_10432" data-name="Group 10432" transform="translate(5.735 -7)">
      <g id="Group_10426" data-name="Group 10426" transform="translate(0 113.45)">
        <g id="Group_10422" data-name="Group 10422" transform="translate(0.796 5.311)">
          <path id="Path_50066" data-name="Path 50066" d="M.682.341v51.6a.344.344,0,0,1-.341.341A.344.344,0,0,1,0,51.946V.341A.344.344,0,0,1,.341,0,.344.344,0,0,1,.682.341Z" fill="#ff6e00"/>
        </g>
        <g id="Group_10425" data-name="Group 10425">
          <g id="Group_10423" data-name="Group 10423" transform="translate(0 58.497)">
            <path id="Path_50067" data-name="Path 50067" d="M.806,0A.806.806,0,1,1,0,.806.807.807,0,0,1,.806,0Z" transform="translate(0.331)" fill="#ff6e00"/>
            <path id="Path_50068" data-name="Path 50068" d="M1.137,0A1.137,1.137,0,1,1,0,1.137,1.133,1.133,0,0,1,1.137,0Z" transform="translate(0 2.17)" fill="#ff6e00"/>
          </g>
          <g id="Group_10424" data-name="Group 10424">
            <path id="Path_50069" data-name="Path 50069" d="M.806,0A.806.806,0,1,1,0,.806.807.807,0,0,1,.806,0Z" transform="translate(0.331 2.8)" fill="#ff6e00"/>
            <path id="Path_50070" data-name="Path 50070" d="M1.137,0A1.137,1.137,0,1,1,0,1.137,1.133,1.133,0,0,1,1.137,0Z" fill="#ff6e00"/>
          </g>
        </g>
      </g>
      <g id="Group_10431" data-name="Group 10431">
        <g id="Group_10427" data-name="Group 10427" transform="translate(0.796 5.311)">
          <path id="Path_50071" data-name="Path 50071" d="M.682.341v51.6a.344.344,0,0,1-.341.341A.344.344,0,0,1,0,51.946V.341A.344.344,0,0,1,.341,0,.344.344,0,0,1,.682.341Z" fill="#ff6e00"/>
        </g>
        <g id="Group_10430" data-name="Group 10430">
          <g id="Group_10428" data-name="Group 10428" transform="translate(0 58.497)">
            <path id="Path_50072" data-name="Path 50072" d="M.806,0A.806.806,0,1,1,0,.806.807.807,0,0,1,.806,0Z" transform="translate(0.331)" fill="#ff6e00"/>
            <path id="Path_50073" data-name="Path 50073" d="M1.137,0A1.137,1.137,0,1,1,0,1.137,1.133,1.133,0,0,1,1.137,0Z" transform="translate(0 2.17)" fill="#ff6e00"/>
          </g>
          <g id="Group_10429" data-name="Group 10429">
            <path id="Path_50074" data-name="Path 50074" d="M.806,0A.806.806,0,1,1,0,.806.807.807,0,0,1,.806,0Z" transform="translate(0.331 2.8)" fill="#ff6e00"/>
            <path id="Path_50075" data-name="Path 50075" d="M1.137,0A1.137,1.137,0,1,1,0,1.137,1.133,1.133,0,0,1,1.137,0Z" fill="#ff6e00"/>
          </g>
        </g>
      </g>
    </g>
    <g id="Group_10433" data-name="Group 10433" transform="translate(0 56.848)">
      <path id="Path_50076" data-name="Path 50076" d="M12.173,6.014c-.889-.517-1.8-1.106-2.759-1.674C8.835,3.369,8.246,2.459,7.74,1.571,7.43,1.044,7.14.527,6.882,0c-.258.517-.548,1.044-.858,1.571-.517.889-1.1,1.8-1.674,2.769C3.379,4.908,2.48,5.5,1.581,6.014c-.537.31-1.054.6-1.581.858.527.258,1.044.548,1.571.858.889.517,1.8,1.106,2.769,1.674.579.961,1.157,1.87,1.674,2.769.31.527.6,1.044.858,1.571.258-.517.548-1.044.858-1.571.517-.889,1.106-1.8,1.674-2.769.961-.579,1.87-1.157,2.759-1.674.537-.31,1.054-.6,1.581-.858C13.216,6.613,12.7,6.324,12.173,6.014Zm-5.3,4.908c-.465-.868-.961-1.736-1.436-2.614-.878-.475-1.746-.971-2.614-1.436.868-.465,1.736-.961,2.614-1.426.475-.878.971-1.746,1.436-2.614.465.868.961,1.736,1.426,2.614.889.465,1.757.961,2.625,1.426-.868.465-1.736.961-2.614,1.436C7.833,9.186,7.337,10.054,6.872,10.922Z" transform="translate(0 17.475)" fill="#ff6e00"/>
      <path id="Path_50077" data-name="Path 50077" d="M5.2.7A2.117,2.117,0,0,1,6.23.073,2.217,2.217,0,0,1,7.708.2a1.481,1.481,0,0,1,.827.9A1.5,1.5,0,0,0,7.625.435,1.929,1.929,0,0,0,6.4.549,1.7,1.7,0,0,0,5.476,1.7,2.893,2.893,0,0,0,5.589,3.5,5.478,5.478,0,0,0,6.809,5.281c.537.579,1.2,1.137,1.85,1.829a6.415,6.415,0,0,1,1.591,2.6,3.634,3.634,0,0,1-.424,3.1,2.849,2.849,0,0,1-2.459,1.209A2.192,2.192,0,0,1,5.5,12.7,2.311,2.311,0,0,1,6.736,9.57,1.839,1.839,0,0,1,7.3,9.425a2.469,2.469,0,0,0-.434.351,2.272,2.272,0,0,0-.7,1.385,1.536,1.536,0,0,0,.279,1,1.06,1.06,0,0,0,.951.5,1.566,1.566,0,0,0,1.168-.734,2.274,2.274,0,0,0,.145-1.808c-.393-1.447-1.819-2.6-2.924-3.989A7.869,7.869,0,0,1,5.207,5.3a7.8,7.8,0,0,1-.589.858C3.512,7.544,2.086,8.7,1.694,10.148a2.279,2.279,0,0,0,.145,1.808,1.6,1.6,0,0,0,1.168.734,1.049,1.049,0,0,0,.951-.5,1.493,1.493,0,0,0,.279-1,2.272,2.272,0,0,0-.7-1.385A2.47,2.47,0,0,0,3.1,9.456a1.509,1.509,0,0,1,.568.145,2.311,2.311,0,0,1,1.24,3.131,2.275,2.275,0,0,1-.672.868,2.153,2.153,0,0,1-1.2.455,2.928,2.928,0,0,1-2.449-1.24,3.634,3.634,0,0,1-.424-3.1,6.371,6.371,0,0,1,1.581-2.6c.651-.692,1.312-1.25,1.85-1.829A5.589,5.589,0,0,0,4.814,3.5,2.886,2.886,0,0,0,4.928,1.7,1.742,1.742,0,0,0,4,.549,1.929,1.929,0,0,0,2.768.435a1.419,1.419,0,0,0-.909.661A1.508,1.508,0,0,1,2.686.2,2.217,2.217,0,0,1,4.163.073,2.117,2.117,0,0,1,5.2.7Z" transform="translate(1.675)" fill="#ff6e00"/>
      <path id="Path_50078" data-name="Path 50078" d="M5.2,13.315a2.117,2.117,0,0,1-1.033.63,2.217,2.217,0,0,1-1.478-.124,1.508,1.508,0,0,1-.827-.889,1.5,1.5,0,0,0,.909.661A1.929,1.929,0,0,0,4,13.481a1.767,1.767,0,0,0,.93-1.147,2.893,2.893,0,0,0-.114-1.808A5.479,5.479,0,0,0,3.595,8.748c-.537-.579-1.2-1.137-1.85-1.829a6.289,6.289,0,0,1-1.581-2.6,3.629,3.629,0,0,1,.424-3.1A2.88,2.88,0,0,1,3.058.006a2.153,2.153,0,0,1,1.2.455,2.2,2.2,0,0,1,.672.868,2.332,2.332,0,0,1,.1,1.695A2.376,2.376,0,0,1,3.688,4.449a1.509,1.509,0,0,1-.568.145,2.469,2.469,0,0,0,.434-.351,2.272,2.272,0,0,0,.7-1.385,1.645,1.645,0,0,0-.279-1.013,1.061,1.061,0,0,0-.951-.5,1.566,1.566,0,0,0-1.168.734,2.318,2.318,0,0,0-.145,1.808C2.107,5.338,3.523,6.5,4.639,7.88a7.867,7.867,0,0,1,.579.827A7.867,7.867,0,0,1,5.8,7.88C6.9,6.5,8.328,5.338,8.72,3.891a2.274,2.274,0,0,0-.145-1.808,1.615,1.615,0,0,0-1.168-.734,1.049,1.049,0,0,0-.951.5,1.52,1.52,0,0,0-.279,1.013,2.17,2.17,0,0,0,.7,1.385,2.469,2.469,0,0,0,.434.351,1.509,1.509,0,0,1-.568-.145A2.373,2.373,0,0,1,5.4,3.023a2.332,2.332,0,0,1,.1-1.695A2.2,2.2,0,0,1,6.178.461a2.232,2.232,0,0,1,1.2-.455A2.826,2.826,0,0,1,9.836,1.215a3.634,3.634,0,0,1,.424,3.1,6.279,6.279,0,0,1-1.591,2.6c-.651.692-1.3,1.25-1.85,1.829A5.59,5.59,0,0,0,5.6,10.525a2.886,2.886,0,0,0-.114,1.808,1.73,1.73,0,0,0,.92,1.147,1.929,1.929,0,0,0,1.23.114,1.419,1.419,0,0,0,.909-.661,1.48,1.48,0,0,1-.827.889,2.217,2.217,0,0,1-1.478.124A2.1,2.1,0,0,1,5.2,13.315Z" transform="translate(1.675 34.674)" fill="#ff6e00"/>
      <path id="Path_50079" data-name="Path 50079" d="M3.469,0a5.182,5.182,0,0,0,.744,1.023c.713.8,1.56,1.343,1.86,1.684.61.651,1.126,1.746.744,2.149s-1.509-.041-2.211-.785A7.276,7.276,0,0,1,3.469,1.994,7.276,7.276,0,0,1,2.332,4.071C1.64,4.815.5,5.26.131,4.857s.134-1.5.744-2.149c.3-.341,1.147-.878,1.86-1.684A5.583,5.583,0,0,0,3.469,0Z" transform="translate(3.403 14.168)" fill="#ff6e00"/>
      <path id="Path_50080" data-name="Path 50080" d="M3.469,5a5.584,5.584,0,0,0-.734-1.023c-.713-.8-1.56-1.343-1.86-1.674C.265,1.642-.251.557.131.154S1.64.2,2.332.939A7.276,7.276,0,0,1,3.469,3.016,7.276,7.276,0,0,1,4.605.939C5.3.185,6.434-.249,6.817.154S6.682,1.642,6.073,2.3c-.3.341-1.147.878-1.86,1.674A4.9,4.9,0,0,0,3.469,5Z" transform="translate(3.403 29.525)" fill="#ff6e00"/>
      <path id="Path_50081" data-name="Path 50081" d="M1.044,1.054C1.653.744,2.707.289,3.11,0A18.1,18.1,0,0,0,1.54,1.54,19.694,19.694,0,0,0,0,3.11C.279,2.718.734,1.664,1.044,1.054Z" transform="translate(8.68 26.144)" fill="#ff6e00"/>
      <path id="Path_50082" data-name="Path 50082" d="M1.054,2.067C.744,1.457.289.4,0,0A18.1,18.1,0,0,0,1.54,1.571,19.7,19.7,0,0,0,3.11,3.11C2.718,2.831,1.664,2.377,1.054,2.067Z" transform="translate(8.67 19.428)" fill="#ff6e00"/>
      <path id="Path_50083" data-name="Path 50083" d="M2.067,2.056C1.457,2.366.4,2.821,0,3.11a18.1,18.1,0,0,0,1.571-1.54A18.1,18.1,0,0,0,3.11,0C2.831.393,2.377,1.447,2.067,2.056Z" transform="translate(1.953 19.438)" fill="#ff6e00"/>
      <path id="Path_50084" data-name="Path 50084" d="M2.056,1.044c.31.61.765,1.664,1.054,2.067A18.1,18.1,0,0,0,1.571,1.54,19.7,19.7,0,0,0,0,0C.393.279,1.447.734,2.056,1.044Z" transform="translate(1.963 26.155)" fill="#ff6e00"/>
      <path id="Path_50085" data-name="Path 50085" d="M0,.241C.011.024.579-.09,1.024.086A3.21,3.21,0,0,1,2.057.861a8.4,8.4,0,0,1,.816,1.085,2.9,2.9,0,0,0-1.085-.775A8.173,8.173,0,0,0,.745.84C.4.7-.02.458,0,.241Z" transform="translate(3.492 32.93)" fill="#ff6e00"/>
      <path id="Path_50086" data-name="Path 50086" d="M2.883,1.695c-.021.217-.589.331-1.023.165A3.338,3.338,0,0,1,.816,1.085,8.4,8.4,0,0,1,0,0,2.9,2.9,0,0,0,1.085.775a8.17,8.17,0,0,0,1.044.331C2.48,1.24,2.9,1.478,2.883,1.695Z" transform="translate(7.368 13.827)" fill="#ff6e00"/>
      <path id="Path_50087" data-name="Path 50087" d="M2.883.241C2.862.024,2.294-.09,1.86.086A3.338,3.338,0,0,0,.816.861,8.4,8.4,0,0,0,0,1.946a2.9,2.9,0,0,1,1.085-.775A8.173,8.173,0,0,1,2.129.84C2.48.7,2.9.458,2.883.241Z" transform="translate(7.368 32.93)" fill="#ff6e00"/>
      <path id="Path_50088" data-name="Path 50088" d="M0,1.695c.01.217.579.331,1.023.165a3.21,3.21,0,0,0,1.033-.775A8.4,8.4,0,0,0,2.873,0,2.9,2.9,0,0,1,1.788.775a8.17,8.17,0,0,1-1.044.331C.4,1.24-.02,1.478,0,1.695Z" transform="translate(3.492 13.827)" fill="#ff6e00"/>
    </g>
  </g>
</svg>
