<svg xmlns="http://www.w3.org/2000/svg" width="61.706" height="64.405" viewBox="0 0 61.706 64.405">
  <g id="Group_27207" data-name="Group 27207" transform="translate(-705.224 -9344.191)">
    <path id="Subtraction_18" data-name="Subtraction 18" d="M-617.5,13160.409h-43.989c-4.391,0-4.861-2.227-5.275-4.191-.3-1.4-.576-2.729-2.312-2.936-1.66-.2-2.9-1.45-3.692-3.721a23.824,23.824,0,0,1-.993-7.59c0-.781.022-1.608.064-2.458.015-.291.023-.566.023-.818a15.4,15.4,0,0,0-1.665-6.958,12.441,12.441,0,0,0-1.663-2.531,12.274,12.274,0,0,0,1.663-2.532,15.394,15.394,0,0,0,1.665-6.958c0-.253-.008-.521-.023-.82-.042-.851-.064-1.677-.064-2.455a23.815,23.815,0,0,1,.993-7.59c.79-2.271,2.032-3.523,3.692-3.722,1.737-.205,2.016-1.531,2.312-2.935.414-1.965.884-4.19,5.275-4.19H-617.5v62.405Z" transform="translate(1383.426 -3752.812)" fill="#ff6e00" stroke="#ff6e00" stroke-width="2"/>
    <path id="Path_52429" data-name="Path 52429" d="M5.816,14.015A7.761,7.761,0,0,0,6.93,15.547C8,16.739,9.267,17.559,9.716,18.07c.913.975,1.687,2.616,1.114,3.219-.573.588-2.26-.062-3.312-1.176A10.9,10.9,0,0,1,5.816,17a10.9,10.9,0,0,1-1.7,3.111c-1.037,1.114-2.739,1.78-3.3,1.176-.573-.6.2-2.244,1.114-3.219.449-.511,1.718-1.316,2.786-2.523A8.363,8.363,0,0,0,5.816,14.015Z" transform="translate(718.412 9382.218) rotate(-90)" fill="#fff" stroke="#fff" stroke-width="2"/>
  </g>
</svg>
