<svg version="1.2" xmlns="http://www.w3.org/2000/svg" viewBox="0 0 155 67" width="155" height="67">
	<title>mahant_btn</title>
	<style>
		.s0 { fill: #ff7c07;stroke: #ff6e00;stroke-width: 2 } 
	</style>
	<g>
		<path id="path932-2" class="s0" d="m0.7 32.4q0.9-1 1.6-2.1 0.7-1.1 1.2-2.3 0.5-1.2 0.7-2.5 0.3-1.3 0.3-2.7 0-0.4-0.1-0.8 0-1.2 0-2.4c0-5.7 1.2-11 5.3-11.4 4.7-0.5 0-7.2 8.6-7.2h117.1c8.6 0 3.9 6.7 8.6 7.2 4.1 0.4 5.3 5.7 5.3 11.3q0 1.3-0.1 2.5 0 0.4 0 0.8 0 1.4 0.3 2.7 0.2 1.3 0.7 2.5 0.5 1.2 1.2 2.3 0.7 1.1 1.6 2.1-0.9 1-1.6 2.1-0.7 1.1-1.2 2.3-0.5 1.2-0.7 2.5-0.3 1.3-0.3 2.6 0 0.4 0 0.9 0.1 1.2 0.1 2.4c0 5.7-1.2 11-5.3 11.4-4.7 0.5 0 7.2-8.6 7.2h-117.1c-8.6 0-3.9-6.7-8.6-7.2-4.1-0.4-5.3-5.7-5.3-11.4q0-1.2 0-2.4 0.1-0.5 0.1-0.9 0-1.3-0.3-2.6-0.2-1.3-0.7-2.5-0.5-1.2-1.2-2.3-0.7-1.1-1.6-2.1z"/>
	</g>
</svg>