<svg xmlns="http://www.w3.org/2000/svg" xmlns:xlink="http://www.w3.org/1999/xlink" width="154.437" height="66.788" viewBox="0 0 154.437 66.788">
  <defs>
    <filter id="path932" x="0" y="0" width="154.437" height="66.788" filterUnits="userSpaceOnUse">
      <feOffset dy="2" input="SourceAlpha"/>
      <feGaussianBlur result="blur"/>
      <feFlood flood-opacity="0.161"/>
      <feComposite operator="in" in2="blur"/>
      <feComposite in="SourceGraphic"/>
    </filter>
  </defs>
  <g transform="matrix(1, 0, 0, 1, 0, 0)" filter="url(#path932)">
    <path id="path932-2" data-name="path932" d="M148.084-238.685a14.029,14.029,0,0,0-9.548-3.776q-.4,0-.824.024c-.82.048-1.649.074-2.471.074-5.621,0-10.947-1.233-11.379-5.315-.494-4.678-7.171,0-7.171-8.609V-373.381c0-8.609,6.677-3.93,7.171-8.609.432-4.08,5.756-5.314,11.376-5.314.823,0,1.652.026,2.473.074.279.016.553.023.822.023a14.029,14.029,0,0,0,9.551-3.778,14.031,14.031,0,0,0,9.55,3.778q.4,0,.821-.023c.821-.048,1.651-.074,2.474-.074,5.622,0,10.946,1.233,11.378,5.314.494,4.679,7.172,0,7.172,8.609v117.094c0,8.609-6.678,3.93-7.172,8.609-.431,4.082-5.758,5.315-11.38,5.315-.823,0-1.65-.026-2.471-.074-.279-.016-.554-.024-.824-.024a14.026,14.026,0,0,0-9.547,3.776" transform="translate(-237.99 -115.69) rotate(90)" fill="#fff" stroke="#ff6e00" stroke-width="2"/>
  </g>
</svg>
