<svg xmlns="http://www.w3.org/2000/svg" width="20.357" height="13.723" viewBox="0 0 20.357 13.723">
  <g id="Group_10665" data-name="Group 10665" transform="translate(-277.821 -72.249)">
    <path id="Path_50030" data-name="Path 50030" d="M20.349,29.95c-.517.889-1.106,1.8-1.674,2.759-.971.579-1.881,1.157-2.769,1.674-.527.31-1.044.6-1.571.858.517.258,1.044.548,1.571.858.889.517,1.8,1.106,2.769,1.674.568.961,1.157,1.881,1.674,2.769.31.517.6,1.044.858,1.56.258-.517.548-1.044.868-1.56.517-.889,1.106-1.8,1.674-2.769.961-.579,1.87-1.157,2.769-1.674.527-.31,1.044-.6,1.571-.858-.517-.258-1.044-.548-1.571-.858-.889-.517-1.8-1.106-2.769-1.674-.579-.961-1.168-1.881-1.674-2.759-.32-.527-.6-1.044-.868-1.571C20.948,28.906,20.659,29.433,20.349,29.95Zm4.908,5.3c-.868.465-1.736.961-2.614,1.436-.475.878-.971,1.746-1.436,2.614-.465-.868-.961-1.736-1.426-2.614-.878-.475-1.746-.971-2.614-1.436.868-.465,1.736-.961,2.614-1.436.475-.878.971-1.746,1.426-2.614.465.868.961,1.736,1.436,2.614C23.521,34.29,24.389,34.8,25.257,35.251Z" transform="translate(266.793 43.87)" fill="#fda000"/>
    <path id="Path_50033" data-name="Path 50033" d="M14.015,32.186a5.181,5.181,0,0,0,1.023-.744c.8-.713,1.343-1.56,1.674-1.86.661-.61,1.746-1.126,2.149-.744s-.041,1.509-.785,2.211A7.276,7.276,0,0,1,16,32.186a7.276,7.276,0,0,1,2.077,1.137c.754.692,1.188,1.829.785,2.2s-1.5-.134-2.149-.744c-.331-.3-.878-1.147-1.674-1.86A5.724,5.724,0,0,0,14.015,32.186Z" transform="translate(263.806 46.935)" fill="#fda000"/>
    <path id="Path_50034" data-name="Path 50034" d="M20.5,32.187a5.448,5.448,0,0,0-1.023.734c-.8.713-1.343,1.56-1.674,1.86-.661.61-1.746,1.126-2.149.744s.041-1.509.785-2.2a7.128,7.128,0,0,1,2.077-1.137,7.128,7.128,0,0,1-2.077-1.137c-.754-.7-1.188-1.829-.785-2.211s1.488.134,2.149.744c.331.3.878,1.147,1.674,1.86A6.174,6.174,0,0,0,20.5,32.187Z" transform="translate(277.677 46.944)" fill="#fda000"/>
    <path id="Path_50035" data-name="Path 50035" d="M16.228,30.635c-.31-.61-.765-1.664-1.054-2.067a18.1,18.1,0,0,0,1.54,1.571,19.694,19.694,0,0,0,1.571,1.54C17.892,31.4,16.838,30.945,16.228,30.635Z" transform="translate(274.624 45.635)" fill="#fda000"/>
    <path id="Path_50036" data-name="Path 50036" d="M16.591,30.625c-.61.31-1.664.765-2.067,1.054a18.1,18.1,0,0,0,1.571-1.54,19.694,19.694,0,0,0,1.54-1.571C17.355,28.962,16.9,30.016,16.591,30.625Z" transform="translate(268.557 45.644)" fill="#fda000"/>
    <path id="Path_50037" data-name="Path 50037" d="M16.581,30.263c.31.61.765,1.664,1.054,2.067a18.1,18.1,0,0,0-1.54-1.571,18.1,18.1,0,0,0-1.571-1.54C14.918,29.5,15.972,29.953,16.581,30.263Z" transform="translate(268.566 51.711)" fill="#fda000"/>
    <path id="Path_50038" data-name="Path 50038" d="M16.219,30.272c.61-.31,1.664-.765,2.067-1.054a18.1,18.1,0,0,0-1.571,1.54,19.7,19.7,0,0,0-1.54,1.571C15.454,31.936,15.909,30.882,16.219,30.272Z" transform="translate(274.633 51.701)" fill="#fda000"/>
  </g>
</svg>
