<svg xmlns="http://www.w3.org/2000/svg" width="61.701" height="64.405" viewBox="0 0 61.701 64.405">
  <g id="Group_27208" data-name="Group 27208" transform="translate(0.93 0.81)">
    <path id="Subtraction_18" data-name="Subtraction 18" d="M59.5,0H15.514c-4.391,0-4.861,2.227-5.275,4.191-.3,1.4-.576,2.729-2.312,2.935-1.66.2-2.9,1.45-3.692,3.721a23.818,23.818,0,0,0-.993,7.59c0,.781.022,1.608.064,2.458.015.291.023.567.023.818a15.4,15.4,0,0,1-1.665,6.959A12.43,12.43,0,0,1,0,31.2a12.294,12.294,0,0,1,1.663,2.532,15.393,15.393,0,0,1,1.665,6.958c0,.253-.008.522-.023.821-.043.85-.064,1.676-.064,2.455a23.818,23.818,0,0,0,.993,7.59c.79,2.271,2.032,3.523,3.692,3.722,1.737.206,2.016,1.532,2.312,2.935.414,1.965.884,4.19,5.275,4.19H59.5V0Z" transform="translate(59.572 62.596) rotate(180)" fill="#ff6e00" stroke="#ff6e00" stroke-width="2"/>
    <path id="Path_52429" data-name="Path 52429" d="M5.2,7.5A7.761,7.761,0,0,1,6.31,5.97C7.378,4.778,8.647,3.958,9.1,3.447,10.009,2.472,10.783.831,10.21.228,9.637-.36,7.95.29,6.9,1.4A10.9,10.9,0,0,0,5.2,4.515,10.9,10.9,0,0,0,3.493,1.4C2.456.29.754-.376.2.228c-.573.6.2,2.244,1.114,3.219C1.76,3.958,3.029,4.763,4.1,5.97A8.363,8.363,0,0,1,5.2,7.5Z" transform="translate(26.07 36.596) rotate(-90)" fill="#fff" stroke="#fff" stroke-width="2"/>
  </g>
</svg>
