<svg xmlns="http://www.w3.org/2000/svg" width="213.12" height="48" viewBox="0 0 213.12 48">
  <path id="path932" d="M23.5,222a9.776,9.776,0,0,0-7.147-3.46q-.3,0-.617.022c-.614.044-1.234.068-1.85.068-4.208,0-8.194-1.13-8.517-4.87C5,209.474,0,213.76,0,205.873V26.128c0-7.888,5-3.6,5.368-7.888.323-3.739,4.309-4.868,8.516-4.868.616,0,1.237.024,1.851.068.209.015.414.022.615.022A9.776,9.776,0,0,0,23.5,10a9.778,9.778,0,0,0,7.149,3.461q.3,0,.615-.022c.614-.044,1.236-.068,1.852-.068,4.208,0,8.194,1.13,8.517,4.868C42,22.527,47,18.24,47,26.128V205.873c0,7.887-5,3.6-5.368,7.887-.323,3.74-4.31,4.87-8.519,4.87-.616,0-1.235-.024-1.85-.068-.209-.015-.415-.022-.617-.022A9.775,9.775,0,0,0,23.5,222" transform="translate(222.308 0.5) rotate(90)" fill="#fff" stroke="#fff" stroke-width="1"/>
</svg>
