<svg xmlns="http://www.w3.org/2000/svg" width="38.82" height="10.957" viewBox="0 0 38.82 10.957">
  <g id="Group_10596" data-name="Group 10596" transform="translate(-35.831 10.957) rotate(-90)">
    <g id="Group_10433" data-name="Group 10433" transform="translate(0 35.831)">
      <path id="Path_50076" data-name="Path 50076" d="M9.7,4.795C9,4.383,8.271,3.913,7.505,3.46c-.461-.774-.931-1.5-1.335-2.208C5.923.832,5.693.42,5.487,0,5.281.412,5.05.832,4.8,1.252c-.412.708-.873,1.433-1.335,2.208-.774.453-1.491.923-2.208,1.335-.428.247-.84.478-1.26.684.42.206.832.437,1.252.684.708.412,1.433.881,2.208,1.335.461.766.923,1.491,1.335,2.208.247.42.478.832.684,1.252.206-.412.437-.832.684-1.252C6.574,9,7.044,8.271,7.5,7.5c.766-.461,1.491-.923,2.2-1.335.428-.247.84-.478,1.26-.684C10.537,5.272,10.125,5.042,9.7,4.795ZM5.478,8.708c-.371-.692-.766-1.384-1.145-2.084-.7-.379-1.392-.774-2.084-1.145.692-.371,1.384-.766,2.084-1.137.379-.7.774-1.392,1.145-2.084.371.692.766,1.384,1.137,2.084.708.371,1.4.766,2.093,1.137-.692.371-1.384.766-2.084,1.145C6.245,7.324,5.849,8.016,5.478,8.708Z" transform="translate(0 13.932)" fill="#ff862a"/>
      <path id="Path_50077" data-name="Path 50077" d="M4.143.561a1.688,1.688,0,0,1,.824-.5,1.768,1.768,0,0,1,1.178.1A1.181,1.181,0,0,1,6.8.874,1.2,1.2,0,0,0,6.079.347,1.538,1.538,0,0,0,5.1.438a1.357,1.357,0,0,0-.733.914,2.307,2.307,0,0,0,.091,1.442,4.368,4.368,0,0,0,.972,1.417c.428.461.956.906,1.475,1.458A5.114,5.114,0,0,1,8.171,7.745a2.9,2.9,0,0,1-.338,2.471,2.272,2.272,0,0,1-1.961.964,1.748,1.748,0,0,1-1.491-1.054,1.843,1.843,0,0,1,.989-2.5,1.466,1.466,0,0,1,.453-.115,1.968,1.968,0,0,0-.346.28,1.811,1.811,0,0,0-.56,1.1,1.225,1.225,0,0,0,.222.8.845.845,0,0,0,.758.4,1.249,1.249,0,0,0,.931-.585,1.813,1.813,0,0,0,.115-1.442c-.313-1.153-1.45-2.076-2.331-3.18a6.273,6.273,0,0,1-.461-.659,6.22,6.22,0,0,1-.47.684C2.8,6.015,1.663,6.937,1.35,8.091a1.817,1.817,0,0,0,.115,1.442,1.277,1.277,0,0,0,.931.585.837.837,0,0,0,.758-.4,1.19,1.19,0,0,0,.222-.8,1.811,1.811,0,0,0-.56-1.1,1.97,1.97,0,0,0-.346-.28,1.2,1.2,0,0,1,.453.115,1.843,1.843,0,0,1,.989,2.5,1.813,1.813,0,0,1-.535.692,1.716,1.716,0,0,1-.956.362,2.334,2.334,0,0,1-1.952-.989A2.9,2.9,0,0,1,.131,7.745a5.079,5.079,0,0,1,1.26-2.076c.519-.552,1.046-1,1.475-1.458a4.456,4.456,0,0,0,.972-1.417,2.3,2.3,0,0,0,.091-1.442A1.389,1.389,0,0,0,3.187.438a1.538,1.538,0,0,0-.98-.091,1.132,1.132,0,0,0-.725.527A1.2,1.2,0,0,1,2.141.157a1.768,1.768,0,0,1,1.178-.1A1.688,1.688,0,0,1,4.143.561Z" transform="translate(1.335 0)" fill="#ff862a"/>
      <path id="Path_50078" data-name="Path 50078" d="M4.143,10.616a1.688,1.688,0,0,1-.824.5,1.768,1.768,0,0,1-1.178-.1,1.2,1.2,0,0,1-.659-.708,1.2,1.2,0,0,0,.725.527,1.538,1.538,0,0,0,.98-.091,1.409,1.409,0,0,0,.741-.914,2.307,2.307,0,0,0-.091-1.442,4.368,4.368,0,0,0-.972-1.417c-.428-.461-.956-.906-1.475-1.458A5.013,5.013,0,0,1,.131,3.44,2.893,2.893,0,0,1,.469.969,2.3,2.3,0,0,1,2.438,0a1.716,1.716,0,0,1,.956.362,1.754,1.754,0,0,1,.535.692A1.859,1.859,0,0,1,4.011,2.41,1.894,1.894,0,0,1,2.94,3.547a1.2,1.2,0,0,1-.453.115,1.969,1.969,0,0,0,.346-.28,1.811,1.811,0,0,0,.56-1.1,1.311,1.311,0,0,0-.222-.807.845.845,0,0,0-.758-.4,1.249,1.249,0,0,0-.931.585A1.848,1.848,0,0,0,1.367,3.1C1.68,4.256,2.808,5.178,3.7,6.282a6.272,6.272,0,0,1,.461.659,6.272,6.272,0,0,1,.461-.659C5.5,5.178,6.639,4.256,6.952,3.1a1.813,1.813,0,0,0-.115-1.442,1.288,1.288,0,0,0-.931-.585.837.837,0,0,0-.758.4,1.212,1.212,0,0,0-.222.807,1.73,1.73,0,0,0,.56,1.1,1.969,1.969,0,0,0,.346.28,1.2,1.2,0,0,1-.453-.115A1.892,1.892,0,0,1,4.308,2.41,1.859,1.859,0,0,1,4.39,1.059,1.754,1.754,0,0,1,4.926.367,1.779,1.779,0,0,1,5.881,0,2.253,2.253,0,0,1,7.842.969,2.9,2.9,0,0,1,8.18,3.44,5.006,5.006,0,0,1,6.911,5.516c-.519.552-1.038,1-1.475,1.458a4.456,4.456,0,0,0-.972,1.417,2.3,2.3,0,0,0-.091,1.442,1.379,1.379,0,0,0,.733.914,1.538,1.538,0,0,0,.98.091,1.132,1.132,0,0,0,.725-.527,1.18,1.18,0,0,1-.659.708,1.767,1.767,0,0,1-1.178.1A1.674,1.674,0,0,1,4.143,10.616Z" transform="translate(1.335 27.644)" fill="#ff862a"/>
      <path id="Path_50079" data-name="Path 50079" d="M2.765,0a4.131,4.131,0,0,0,.593.816C3.927,1.45,4.6,1.887,4.841,2.158c.486.519.9,1.392.593,1.714s-1.2-.033-1.763-.626A5.8,5.8,0,0,1,2.765,1.59a5.8,5.8,0,0,1-.906,1.656C1.307,3.839.4,4.193.1,3.872S.212,2.677.7,2.158c.239-.272.914-.7,1.483-1.343A4.451,4.451,0,0,0,2.765,0Z" transform="translate(2.713 11.296)" fill="#ff862a"/>
      <path id="Path_50080" data-name="Path 50080" d="M2.765,3.986a4.452,4.452,0,0,0-.585-.816C1.612,2.536.937,2.1.7,1.836.212,1.309-.2.444.1.123s1.2.033,1.755.626A5.8,5.8,0,0,1,2.765,2.4,5.8,5.8,0,0,1,3.672.749C4.224.147,5.13-.2,5.435.123s-.107,1.186-.593,1.714c-.239.272-.914.7-1.483,1.335A3.9,3.9,0,0,0,2.765,3.986Z" transform="translate(2.713 23.539)" fill="#ff862a"/>
      <path id="Path_50081" data-name="Path 50081" d="M.832.84C1.318.593,2.158.231,2.48,0A14.431,14.431,0,0,0,1.227,1.227,15.7,15.7,0,0,0,0,2.48C.222,2.167.585,1.326.832.84Z" transform="translate(6.92 20.844)" fill="#ff862a"/>
      <path id="Path_50082" data-name="Path 50082" d="M.84,1.648C.593,1.162.231.321,0,0A14.432,14.432,0,0,0,1.227,1.252,15.7,15.7,0,0,0,2.48,2.48C2.167,2.257,1.326,1.895.84,1.648Z" transform="translate(6.912 15.489)" fill="#ff862a"/>
      <path id="Path_50083" data-name="Path 50083" d="M1.648,1.639c-.486.247-1.326.61-1.648.84A14.43,14.43,0,0,0,1.252,1.252,14.43,14.43,0,0,0,2.48,0C2.257.313,1.895,1.153,1.648,1.639Z" transform="translate(1.557 15.497)" fill="#ff862a"/>
      <path id="Path_50084" data-name="Path 50084" d="M1.639.832c.247.486.61,1.326.84,1.648A14.432,14.432,0,0,0,1.252,1.227,15.7,15.7,0,0,0,0,0C.313.222,1.153.585,1.639.832Z" transform="translate(1.565 20.852)" fill="#ff862a"/>
      <path id="Path_50085" data-name="Path 50085" d="M0,.192C.009.019.462-.071.816.069A2.56,2.56,0,0,1,1.64.687a6.693,6.693,0,0,1,.651.865A2.316,2.316,0,0,0,1.426.934,6.516,6.516,0,0,0,.594.67C.322.555-.016.365,0,.192Z" transform="translate(2.784 26.253)" fill="#ff862a"/>
      <path id="Path_50086" data-name="Path 50086" d="M2.3,1.351c-.016.173-.47.264-.816.132A2.661,2.661,0,0,1,.651.865,6.693,6.693,0,0,1,0,0,2.316,2.316,0,0,0,.865.618,6.514,6.514,0,0,0,1.7.881C1.977.989,2.315,1.178,2.3,1.351Z" transform="translate(5.874 11.024)" fill="#ff862a"/>
      <path id="Path_50087" data-name="Path 50087" d="M2.3.192c-.016-.173-.47-.264-.816-.124A2.661,2.661,0,0,0,.651.687,6.693,6.693,0,0,0,0,1.552,2.316,2.316,0,0,1,.865.934,6.516,6.516,0,0,1,1.7.67C1.977.555,2.315.365,2.3.192Z" transform="translate(5.874 26.253)" fill="#ff862a"/>
      <path id="Path_50088" data-name="Path 50088" d="M0,1.351c.008.173.461.264.816.132A2.56,2.56,0,0,0,1.64.865,6.693,6.693,0,0,0,2.291,0a2.316,2.316,0,0,1-.865.618A6.514,6.514,0,0,1,.594.881C.322.989-.016,1.178,0,1.351Z" transform="translate(2.784 11.024)" fill="#ff862a"/>
    </g>
  </g>
</svg>
