<svg xmlns="http://www.w3.org/2000/svg" xmlns:xlink="http://www.w3.org/1999/xlink" width="81.689" height="93.467" viewBox="0 0 81.689 93.467">
  <defs>
    <radialGradient id="radial-gradient" cx="0.454" cy="0.218" r="0.628" gradientUnits="objectBoundingBox">
      <stop offset="0" stop-color="#f90"/>
      <stop offset="0.213" stop-color="#ffa115" stop-opacity="0.918"/>
      <stop offset="1" stop-color="#fff" stop-opacity="0"/>
    </radialGradient>
  </defs>
  <g id="Group_28065" data-name="Group 28065" transform="translate(0 93.467) rotate(-90)">
    <path id="path914" d="M60.458,74.235a25.2,25.2,0,0,0-13.724,3.932,25.387,25.387,0,0,0-15.011-3.9c-5.268.246-17.59.257-18.273-4.929-.416-3.166-3.326-3.722-5.449-4.128-2.715-.518-4.859-.928-4.859-5.688V22.16c0-4.761,2.144-5.17,4.859-5.688,2.124-.406,5.033-.962,5.449-4.128.683-5.186,13.009-5.174,18.273-4.928,7.521.351,13.943,3.09,16.148,1.641,2.205,1.45,6.342-1.29,13.876-1.641,5.264-.247,17.587-.258,18.269,4.928.416,3.166,3.326,3.721,5.449,4.128,2.715.518,4.858.927,4.858,5.688V59.522c0,4.76-2.144,5.17-4.857,5.688-2.125.406-5.034.962-5.45,4.128-.682,5.187-13.005,5.175-18.269,4.929q-.656-.03-1.289-.03M46.735,81.689l1.137-.956a21.317,21.317,0,0,1,13.693-3.948c13.222.613,20.887-1.933,21.578-7.184.174-1.325.872-1.52,3.051-1.936,2.9-.554,7.274-1.389,7.274-8.144V22.16c0-6.755-4.377-7.591-7.274-8.144-2.18-.417-2.877-.612-3.051-1.936-.691-5.25-8.35-7.8-21.578-7.184A21.47,21.47,0,0,1,47.868.944L46.731,0,45.6.945A21.293,21.293,0,0,1,31.906,4.9C18.675,4.28,11.017,6.829,10.325,12.08c-.174,1.325-.872,1.52-3.051,1.936C4.377,14.57,0,15.405,0,22.16V59.522c0,6.755,4.377,7.591,7.274,8.144,2.179.416,2.877.611,3.052,1.936.691,5.251,8.352,7.8,21.58,7.184A20.963,20.963,0,0,1,45.6,80.734l1.136.956" transform="translate(0 0)" fill="url(#radial-gradient)"/>
  </g>
</svg>
