<svg version="1.2" xmlns="http://www.w3.org/2000/svg" viewBox="0 0 129 68" width="129" height="68">
	<title>path932(2)</title>
	<style>
		.s0 { fill: #ff6e00;stroke: #ff6e00;stroke-width: 2 } 
	</style>
	<g>
		<path id="path932-2" class="s0" d="m0.8 33q0.7-1 1.3-2.2 0.6-1.2 1-2.4 0.4-1.2 0.6-2.5 0.2-1.3 0.2-2.6 0-0.4 0-0.9-0.1-1.2-0.1-2.5c0-5.7 1-11.1 4.4-11.6 3.9-0.5 0-7.3 7.2-7.3h97.3c7.1 0 3.3 6.8 7.1 7.3 3.4 0.4 4.5 5.9 4.5 11.6q0 1.3-0.1 2.5 0 0.5 0 0.9 0 1.3 0.2 2.6 0.1 1.3 0.5 2.5 0.4 1.2 1 2.4 0.6 1.2 1.4 2.2-0.8 1-1.4 2.2-0.6 1.2-1 2.4-0.4 1.3-0.5 2.5-0.2 1.3-0.2 2.6 0 0.4 0 0.9 0.1 1.2 0.1 2.5c0 5.7-1.1 11.2-4.5 11.6-3.8 0.5 0 7.3-7.1 7.3h-97.3c-7.2 0-3.3-6.8-7.2-7.3-3.4-0.4-4.4-5.9-4.4-11.6q0-1.3 0.1-2.5 0-0.5 0-0.9 0-1.3-0.2-2.6-0.2-1.2-0.6-2.5-0.4-1.2-1-2.4-0.6-1.1-1.3-2.2z"/>
	</g>
</svg>