<svg xmlns="http://www.w3.org/2000/svg" width="219.355" height="53.447" viewBox="0 0 219.355 53.447">
  <path id="path932" d="M26.723,219.355a11.942,11.942,0,0,0-8.128-3.214q-.345,0-.7.02c-.7.04-1.4.063-2.1.063-4.785,0-9.318-1.05-9.686-4.524-.421-3.982-6.1,0-6.1-7.328V14.984c0-7.328,5.684-3.345,6.1-7.328.368-3.473,4.9-4.523,9.684-4.523.7,0,1.406.022,2.105.063.237.013.471.02.7.02A11.942,11.942,0,0,0,26.723,0a11.944,11.944,0,0,0,8.129,3.216q.344,0,.7-.02c.7-.041,1.405-.063,2.106-.063,4.785,0,9.318,1.05,9.685,4.523.42,3.983,6.1,0,6.1,7.328V204.372c0,7.328-5.684,3.345-6.1,7.328-.367,3.475-4.9,4.524-9.687,4.524-.7,0-1.4-.022-2.1-.063-.238-.014-.472-.02-.7-.02a11.94,11.94,0,0,0-8.127,3.214" transform="translate(219.355) rotate(90)" fill="#ff862a"/>
</svg>
