<svg xmlns="http://www.w3.org/2000/svg" xmlns:xlink="http://www.w3.org/1999/xlink" width="41.178" height="39.13" viewBox="0 0 41.178 39.13">
  <defs>
    <clipPath id="clip-path">
      <rect id="Rectangle_626" data-name="Rectangle 626" width="41.178" height="39.13" transform="translate(0 0)" fill="none"/>
    </clipPath>
  </defs>
  <g id="Group_28087" data-name="Group 28087" clip-path="url(#clip-path)">
    <path id="Path_52656" data-name="Path 52656" d="M369.758,13.673l3.556-3.59a6.67,6.67,0,0,0-4.437-2.958,10.007,10.007,0,0,0-1.02-.152c-.06,0-.121,0-.181,0V.035H356.023L356,.011c3.7-.013,7.41.016,11.115,0,.629,0,1.233-.032,1.865.023a13.836,13.836,0,0,1,9.407,4.975l3.071-3.037.024,11.7Z" transform="translate(-347.482 -0.002)" fill="#1c3aa9"/>
    <path id="Path_52657" data-name="Path 52657" d="M298.406,580.614a13.647,13.647,0,0,1-6.9,4.828,13.846,13.846,0,0,1-14.1-3.787c-.184-.2-.355-.414-.527-.622l-3.074,3.015c-.009-3.713,0-11.652,0-11.652h6.966c0-.008,0-.016,0-.024h4.713l-3.537,3.577a6.751,6.751,0,0,0,3.2,2.614,6.444,6.444,0,0,0,7.4-1.825,9.623,9.623,0,0,0,.85-1.207Z" transform="translate(-267.252 -558.676)" fill="#ababab"/>
    <path id="Path_52658" data-name="Path 52658" d="M1310.813,1368.371v2.7h2.512v-2.7h.813v6.293h-.813v-2.9h-2.512v2.9H1310v-6.257a.242.242,0,0,1,.036-.036Z" transform="translate(-1278.656 -1335.63)"/>
    <path id="Path_52659" data-name="Path 52659" d="M476,1374.6l2.007-6.279.662-.016,2.045,6.294H479.9l-.481-1.625-2.092,0-.514,1.629Zm3.206-2.321-.849-2.824-.849,2.824Z" transform="translate(-464.611 -1335.563)"/>
    <path id="Path_52660" data-name="Path 52660" d="M1527.738,1374.413h-.8l-.513-1.616-2.116-.012-.505,1.629h-.8l2-6.239a.072.072,0,0,1,.066-.054,4.532,4.532,0,0,1,.635.011Zm-1.531-2.321-.849-2.823-.825,2.823Z" transform="translate(-1486.559 -1335.38)"/>
    <path id="Path_52661" data-name="Path 52661" d="M709.79,1372.2v2.465H709v-6.293h2.237a2.072,2.072,0,0,1,.929.339,2.1,2.1,0,0,1-.063,3.23,2.168,2.168,0,0,1-.77.259Zm0-.694a8.768,8.768,0,0,0,1.09.025c.74-.035,1.158-.3,1.208-1.089.035-.55-.265-1.377-.922-1.377H709.79Z" transform="translate(-692.036 -1335.63)"/>
    <path id="Path_52662" data-name="Path 52662" d="M283.977,1366.684h-.814c-.027-.526-.146-1.2-.725-1.368-1.124-.335-1.683.581-1.74,1.571a17.716,17.716,0,0,0,0,1.844c.059.988.509,1.81,1.633,1.583.682-.138.788-.784.833-1.381h.814a1.928,1.928,0,0,1-1.666,2.079c-2.467.327-2.528-2.375-2.425-4.1.084-1.42.948-2.525,2.473-2.33a1.938,1.938,0,0,1,1.618,2.1" transform="translate(-273.162 -1331.909)"/>
    <path id="Path_52663" data-name="Path 52663" d="M1098.28,1366.66h-.778c-.052,0-.031-.163-.036-.2-.069-.559-.23-1.089-.855-1.2-1.809-.329-1.663,2.124-1.61,3.261.043.937.312,1.9,1.448,1.8.653-.053.877-.425.986-1.023.012-.066.027-.388.067-.388h.778a1.948,1.948,0,0,1-1.364,2.022,2,2,0,0,1-2.548-1.377,8.1,8.1,0,0,1-.025-3.469,2.043,2.043,0,0,1,2.539-1.487,1.935,1.935,0,0,1,1.4,2.061" transform="translate(-1067.988 -1331.885)"/>
    <path id="Path_52664" data-name="Path 52664" d="M105.877,1434.834h-2.608c.019.577.075,1.293.731,1.482a1.285,1.285,0,0,0,1.412-.452c.066-.066.05,0,.082.034.124.139.241.285.355.432a1.928,1.928,0,0,1-1.85.681c-1.433-.2-1.555-1.551-1.5-2.74.056-1.154.578-2.165,1.88-2.094,1.448.079,1.545,1.515,1.494,2.657m-.766-.67c-.016-.676-.132-1.375-.97-1.317-.692.048-.836.742-.848,1.317Z" transform="translate(-100.039 -1397.906)"/>
    <path id="Path_52665" data-name="Path 52665" d="M900.115,1368.371v.694h-1.651v5.6h-.813v-5.6H896v-.694Z" transform="translate(-874.561 -1335.63)"/>
    <path id="Path_52666" data-name="Path 52666" d="M1.938,1432.306v.766a.907.907,0,0,0-.98.276,2.39,2.39,0,0,0-.168.287v3.386H0v-4.666H.766v.431a.988.988,0,0,1,1.172-.479" transform="translate(0 -1397.985)"/>
    <path id="Path_52667" data-name="Path 52667" d="M327.314.371V12.047l-3.565-3.565a6.646,6.646,0,0,0-3.11,5.547.018.018,0,0,0,0,0c0,.008,0,.016,0,.024h-6.966s-.016-.274.009-.747c0,0,0,0,0-.006.016-.312.05-.71.117-1.173l.007-.05a13.85,13.85,0,0,1,2.407-6.007l.048-.066.059-.081q.08-.108.162-.215t.155-.2l.006-.008.055-.068.1-.118.064-.077.057-.067a13.464,13.464,0,0,1,1.807-1.742l-2.163-2.155-.91-.907Z" transform="translate(-306.163 -0.362)" fill="#4285f4"/>
  </g>
</svg>
