<svg width="56" height="58" viewBox="0 0 56 58" fill="none" xmlns="http://www.w3.org/2000/svg">
<path d="M6.20178 40.3137V54.4899C7.5308 53.8993 10.9863 52.7179 14.1759 52.7179C18.163 52.7179 23.9221 56.262 29.2382 56.262C34.5542 56.262 38.9843 53.6039 44.3004 50.9459C49.6165 48.2878 54.0466 34.1116 55.3756 32.7826C56.7046 31.4536 55.8186 29.2385 53.6035 29.2385C51.3885 29.2385 49.1735 32.3396 45.1864 39.8707C41.9968 45.8956 36.7693 47.1065 34.5542 46.9588H25.6941C22.15 46.9588 20.9687 42.8241 20.821 40.7567H17.72C16.3909 40.7567 16.3909 38.9847 17.72 38.9847H25.2511C26.5801 38.9847 28.3521 38.0987 28.3521 36.3266C28.3521 34.5546 26.5801 33.6686 25.2511 33.6686H14.6189C11.4293 33.6686 7.67847 38.0987 6.20178 40.3137Z" fill="white"/>
<path d="M46.5154 26.4409C46.8698 27.8586 50.5026 28.0571 51.8316 27.9095C52.7177 29.378 50.6502 29.3861 50.0596 29.6815C49.1735 30.1246 45.9992 31.2193 45.1865 36.6302C44.3005 42.5287 40.0181 44.1613 38.0984 44.6043H25.2512C23.0361 44.6043 22.1501 43.2753 22.1501 41.9463C22.1501 40.8831 23.6268 40.3219 24.3651 40.1742H26.5802C27.7615 40.1742 30.1242 39.4654 30.1242 36.6302C30.1242 33.0861 28.3522 32.2001 26.5802 32.2001H19.4921C19.9351 29.0991 25.2512 27.77 28.3522 27.77C29.7698 23.5172 34.2591 21.8632 36.3265 21.5679V18.9099C26.5803 16.2519 19.0492 6.9487 20.3782 1.18956C28.9721 -3.77212 35.1819 7.98233 37.2125 14.4798C34.4067 12.2647 28.7065 7.92327 28.3521 8.27767C27.9091 8.72068 37.2123 17.1378 38.0983 17.1378C38.9843 17.1378 43.4144 12.7077 42.5283 11.8217C41.8195 11.1129 39.2796 13.0031 38.0983 14.0367C39.4273 8.72065 46.5154 4.29058 48.2874 7.39163C50.0595 11.2901 42.8237 16.3994 38.9843 18.4668V21.5679C42.9714 21.5679 46.0724 24.6689 46.5154 26.4409Z" fill="white"/>
<rect y="38.0986" width="4.43007" height="19.4923" rx="2.21504" fill="white"/>
</svg>
