<svg width="56" height="58" viewBox="0 0 56 58" fill="none" xmlns="http://www.w3.org/2000/svg">
<path d="M6.20117 40.3136V54.4899C7.53019 53.8992 10.9856 52.7178 14.1753 52.7178C18.1624 52.7178 23.9215 56.2619 29.2375 56.2619C34.5536 56.2619 38.9837 53.6039 44.2998 50.9458C49.6159 48.2878 54.0459 34.1115 55.375 32.7825C56.704 31.4535 55.818 29.2385 53.6029 29.2385C51.3879 29.2385 49.1729 32.3395 45.1858 39.8706C41.9962 45.8955 36.7687 47.1064 34.5536 46.9588H25.6935C22.1494 46.9588 20.9681 42.824 20.8204 40.7567H17.7194C16.3903 40.7567 16.3903 38.9846 17.7194 38.9846H25.2505C26.5795 38.9846 28.3515 38.0986 28.3515 36.3266C28.3515 34.5546 26.5795 33.6685 25.2505 33.6685H14.6183C11.4287 33.6685 7.67786 38.0986 6.20117 40.3136Z" fill="#008400"/>
<path d="M46.5155 26.441C46.8699 27.8586 50.5027 28.0572 51.8317 27.9095C52.7178 29.378 50.6503 29.3861 50.0597 29.6815C49.1737 30.1246 45.9994 31.2194 45.1866 36.6302C44.3006 42.5287 40.0182 44.1613 38.0985 44.6043H25.2513C23.0362 44.6043 22.1502 43.2753 22.1502 41.9463C22.1502 40.8831 23.6269 40.3219 24.3653 40.1743H26.5803C27.7617 40.1743 30.1244 39.4655 30.1244 36.6302C30.1244 33.0862 28.3523 32.2001 26.5803 32.2001H19.4922C19.9352 29.0991 25.2513 27.7701 28.3523 27.7701C29.77 23.5172 34.2592 21.8633 36.3266 21.5679V18.9099C26.5805 16.252 19.0493 6.94873 20.3784 1.18959C28.9722 -3.77209 35.182 7.98236 37.2126 14.4798C34.4068 12.2648 28.7066 7.9233 28.3522 8.2777C27.9092 8.72071 37.2124 17.1378 38.0984 17.1378C38.9844 17.1378 43.4145 12.7078 42.5285 11.8218C41.8197 11.1129 39.2798 13.0031 38.0984 14.0368C39.4274 8.72069 46.5155 4.29061 48.2876 7.39166C50.0596 11.2901 42.8238 16.3995 38.9844 18.4668V21.5679C42.9715 21.5679 46.0725 24.6689 46.5155 26.441Z" fill="#008400"/>
<rect y="38.0986" width="4.43007" height="19.4923" rx="2.21504" fill="#008400"/>
</svg>
