<svg xmlns="http://www.w3.org/2000/svg" width="37" height="37" viewBox="0 0 37 37">
  <g id="Group_28337" data-name="Group 28337" transform="translate(-1337 -9293)">
    <rect id="Rectangle_189" data-name="Rectangle 189" width="37" height="37" rx="18.5" transform="translate(1337 9293)" fill="#25d366"/>
    <g id="Group_10614" data-name="Group 10614" transform="translate(1341.504 9298.205)">
      <path id="Path_50676" data-name="Path 50676" d="M116.054,135.1l.96-4.458a9.464,9.464,0,1,1,3.429,3.223Z" transform="translate(-111.046 -112.312)" fill="#25d366" stroke="#fff" stroke-width="2"/>
      <path id="Path_50677" data-name="Path 50677" d="M192.535,186.43c-.209-.139-.417-.209-.626.069l-.834,1.113a.518.518,0,0,1-.626.07,8.076,8.076,0,0,1-3.755-3.268.526.526,0,0,1,.209-.556l.626-.973c.139-.139.069-.278,0-.417l-.834-2.016c-.209-.556-.417-.487-.626-.487h-.556a1.057,1.057,0,0,0-.7.348c-1.53,1.53-.9,3.685.209,5.076a10.654,10.654,0,0,0,4.589,4.1c2.225.974,2.712.834,3.338.7a2.658,2.658,0,0,0,1.877-1.321c.07-.209.417-1.113.139-1.252" transform="translate(-175.259 -171.89)" fill="#fff"/>
    </g>
  </g>
</svg>
