<svg xmlns="http://www.w3.org/2000/svg" width="32.501" height="30.715" viewBox="0 0 32.501 30.715">
  <g id="Group_28429" data-name="Group 28429" transform="translate(-18813.75 10055.334)">
    <path id="Path_95643" data-name="Path 95643" d="M69.079,28.3H59.6v-.9h8.583V19.976H54.99v-.9H69.079Z" transform="translate(18776.922 -10072.006)" fill="#c74821" stroke="#c74821" stroke-linecap="round" stroke-width="0.5"/>
    <path id="Path_95644" data-name="Path 95644" d="M21.484,28.3H12V19.08H26.089v.9H12.9V27.4h8.587Z" transform="translate(18802 -10072.006)" fill="#c74821" stroke="#c74821" stroke-linecap="round" stroke-width="0.5"/>
    <rect id="Rectangle_665" data-name="Rectangle 665" width="0.896" height="17.23" transform="translate(18842.932 -10044.566)" fill="#c74821" stroke="#c74821" stroke-linecap="round" stroke-width="0.5"/>
    <rect id="Rectangle_666" data-name="Rectangle 666" width="0.896" height="17.23" transform="translate(18816.172 -10044.566)" fill="#c74821" stroke="#c74821" stroke-linecap="round" stroke-width="0.5"/>
    <path id="Path_95645" data-name="Path 95645" d="M47.541,42.255h-.9V21L40.353,15.41l-6.287,5.582V42.255h-.9V20.6l7.183-6.377L47.541,20.6Z" transform="translate(18789.648 -10069.22)" fill="#c74821" stroke="#c74821" stroke-linecap="round" stroke-width="0.5"/>
    <rect id="Rectangle_667" data-name="Rectangle 667" width="13.474" height="0.896" transform="translate(18823.266 -10042.79)" fill="#c74821" stroke="#c74821" stroke-linecap="round" stroke-width="0.5"/>
    <path id="Path_95646" data-name="Path 95646" d="M44,81.894H12V79H44Zm-31.116-.9H43.116V79.875H12.884Z" transform="translate(18802 -10106.763)" fill="#c74821" stroke="#c74821" stroke-linecap="round" stroke-width="0.5"/>
    <path id="Path_95647" data-name="Path 95647" d="M48.92,67.826h-.9V61.91a2.254,2.254,0,0,0-4.507,0v5.916h-.9V61.91a3.15,3.15,0,1,1,6.3,0Z" transform="translate(18784.23 -10095.161)" fill="#c74821" stroke="#c74821" stroke-linecap="round" stroke-width="0.5"/>
  </g>
</svg>
