<svg version="1.2" xmlns="http://www.w3.org/2000/svg" viewBox="0 0 27 31" width="27" height="31">
	<title>corporate_icon</title>
	<style>
		.s0 { fill: #c74821;stroke: #ffffff;stroke-width: .5 } 
	</style>
	<g id="Group_28427">
		<path id="Path_95637" class="s0" d="m24 5.6h-1.6v-3.1q0-0.5-0.2-0.9-0.2-0.4-0.5-0.7-0.3-0.3-0.7-0.5-0.4-0.2-0.9-0.2h-13.4q-0.5 0-0.9 0.2-0.4 0.2-0.7 0.5-0.3 0.3-0.5 0.7-0.1 0.4-0.1 0.9v3.1h-1.7q-0.5 0-1 0.2-0.4 0.2-0.8 0.6-0.4 0.3-0.6 0.8-0.1 0.5-0.1 1v21.6q0 0.1 0 0.3 0.1 0.1 0.2 0.3 0.1 0.1 0.3 0.1 0.1 0.1 0.3 0.1h24.6q0.2 0 0.3-0.1 0.2 0 0.3-0.1 0.1-0.2 0.2-0.3 0.1-0.2 0.1-0.3v-21.6q0-0.5-0.2-1-0.2-0.5-0.6-0.8-0.3-0.4-0.8-0.6-0.5-0.2-1-0.2zm-17.9-3.1q0-0.1 0.1-0.2 0-0.1 0.1-0.2 0.1-0.1 0.2-0.1 0.1-0.1 0.2-0.1h13.4q0.2 0 0.3 0.1 0.1 0 0.1 0.1 0.1 0.1 0.1 0.2 0.1 0.1 0.1 0.2v3.1h-14.6zm18.8 26.5h-5.7v-8.3q0-0.2-0.1-0.3 0-0.2-0.2-0.3-0.1-0.1-0.2-0.2-0.2 0-0.4 0h-9.8q-0.2 0-0.3 0-0.2 0.1-0.3 0.2-0.1 0.1-0.2 0.3 0 0.1 0 0.3v8.3h-5.8v-20.8q0-0.2 0.1-0.3 0.1-0.2 0.2-0.3 0.1-0.1 0.3-0.2 0.1-0.1 0.3-0.1h21.2q0.2 0 0.4 0.1 0.1 0.1 0.2 0.2 0.2 0.1 0.2 0.3 0.1 0.1 0.1 0.3c0 0 0 20.8 0 20.8zm-7.4 0h-8.2v-7.5h8.2zm-8.3-18.5q0 0.1 0 0.3-0.1 0.1-0.2 0.3-0.1 0.1-0.3 0.1-0.1 0.1-0.3 0.1h-3.3q-0.3 0-0.6-0.2-0.2-0.3-0.2-0.6 0-0.4 0.2-0.6 0.3-0.3 0.6-0.3h3.3q0.2 0 0.3 0.1 0.2 0 0.3 0.2 0.1 0.1 0.2 0.2 0 0.2 0 0.4zm6.7 0q0 0.1-0.1 0.3 0 0.1-0.2 0.3-0.1 0.1-0.2 0.1-0.2 0.1-0.3 0.1h-3.3q-0.4 0-0.6-0.2-0.3-0.3-0.3-0.6 0-0.4 0.3-0.6 0.2-0.3 0.6-0.3h3.2q0.2 0 0.4 0.1 0.1 0 0.2 0.2 0.2 0.1 0.2 0.2 0.1 0.2 0.1 0.4zm6.6 0q0 0.1 0 0.3-0.1 0.1-0.2 0.3-0.1 0.1-0.3 0.1-0.1 0.1-0.3 0.1h-3.3q-0.3 0-0.6-0.2-0.2-0.3-0.2-0.6 0-0.4 0.2-0.6 0.3-0.3 0.6-0.3h3.3q0.2 0 0.3 0.1 0.2 0.1 0.3 0.2 0.1 0.1 0.2 0.2 0 0.2 0 0.4zm-13.3 3.2q0 0.1 0 0.3-0.1 0.1-0.2 0.3-0.1 0.1-0.3 0.1-0.1 0.1-0.3 0.1h-3.3q-0.3 0-0.6-0.2-0.2-0.3-0.2-0.6 0-0.4 0.2-0.6 0.3-0.3 0.6-0.3h3.3q0.2 0 0.3 0.1 0.2 0.1 0.3 0.2 0.1 0.1 0.2 0.3 0 0.1 0 0.3zm6.7 0q0 0.1-0.1 0.3 0 0.1-0.2 0.3-0.1 0.1-0.2 0.1-0.2 0.1-0.3 0.1h-3.3q-0.4 0-0.6-0.2-0.3-0.3-0.3-0.6 0-0.4 0.3-0.6 0.2-0.3 0.6-0.3h3.2q0.2 0 0.4 0.1 0.1 0.1 0.2 0.2 0.2 0.1 0.2 0.3 0.1 0.1 0.1 0.3zm6.6 0q0 0.1 0 0.3-0.1 0.1-0.2 0.3-0.1 0.1-0.3 0.1-0.1 0.1-0.3 0.1h-3.3q-0.3 0-0.6-0.2-0.2-0.3-0.2-0.6 0-0.4 0.2-0.6 0.3-0.3 0.6-0.3h3.3q0.2 0 0.3 0.1 0.2 0.1 0.3 0.2 0.1 0.1 0.2 0.3 0 0.1 0 0.3zm-13.3 3.2q0 0.1 0 0.3-0.1 0.2-0.2 0.3-0.1 0.1-0.3 0.2-0.1 0-0.3 0h-3.3q-0.3 0-0.6-0.2-0.2-0.3-0.2-0.6 0-0.4 0.2-0.6 0.3-0.3 0.6-0.3h3.3q0.2 0 0.3 0.1 0.2 0.1 0.3 0.2 0.1 0.1 0.2 0.3 0 0.1 0 0.3zm6.7 0q0 0.1-0.1 0.3 0 0.2-0.2 0.3-0.1 0.1-0.2 0.2-0.2 0-0.3 0h-3.3q-0.4 0-0.6-0.2-0.3-0.3-0.3-0.6 0-0.4 0.3-0.6 0.2-0.3 0.6-0.3h3.2q0.2 0 0.4 0.1 0.1 0.1 0.2 0.2 0.2 0.1 0.2 0.3 0.1 0.1 0.1 0.3zm6.6 0q0 0.1 0 0.3-0.1 0.2-0.2 0.3-0.1 0.1-0.3 0.2-0.1 0-0.3 0h-3.3q-0.3 0-0.6-0.2-0.2-0.3-0.2-0.6 0-0.4 0.2-0.6 0.3-0.3 0.6-0.3h3.3q0.2 0 0.3 0.1 0.2 0.1 0.3 0.2 0.1 0.1 0.2 0.3 0 0.1 0 0.3z"/>
	</g>
</svg>