<svg width="36" height="35" viewBox="0 0 36 35" fill="none" xmlns="http://www.w3.org/2000/svg">
<g clip-path="url(#clip0_130_141)">
<path d="M34.3495 26.985L27.2445 22.26C26.8012 21.9567 26.3112 21.8517 25.7745 21.945C25.2379 22.0383 24.8062 22.295 24.4795 22.715L22.4145 25.375C22.2979 25.5383 22.1287 25.6492 21.907 25.7075C21.6854 25.7658 21.4812 25.7367 21.2945 25.62L20.7695 25.34C19.8595 24.8267 19.0779 24.325 18.4245 23.835C17.3279 23.0183 16.0912 21.9217 14.7145 20.545C13.3379 19.1683 12.2412 17.9317 11.4245 16.835C10.9345 16.1817 10.4329 15.4 9.91954 14.49L9.63953 13.965C9.52287 13.7783 9.4937 13.5742 9.55204 13.3525C9.61037 13.1308 9.7212 12.9617 9.88453 12.845L12.5445 10.78C12.9645 10.4533 13.2212 10.0217 13.3145 9.485C13.4079 8.94833 13.3029 8.45833 12.9995 8.015L8.27454 0.91C7.94787 0.443333 7.5162 0.151667 6.97954 0.0349998C6.44287 -0.0816668 5.9412 -1.2219e-06 5.47454 0.279999L2.53454 2.065C1.57787 2.625 0.936202 3.45333 0.609535 4.55C0.212869 6.04333 0.154535 7.65333 0.434535 9.38C0.807869 11.5267 1.7062 13.8017 3.12954 16.205C4.7862 19.005 7.15454 21.945 10.2345 25.025C13.8745 28.665 17.3162 31.3133 20.5595 32.97C23.1962 34.3233 25.6695 35 27.9795 35C28.9595 35 29.8695 34.8833 30.7095 34.65C31.8062 34.3233 32.6345 33.6817 33.1945 32.725L34.9795 29.785C35.2595 29.3183 35.3412 28.8167 35.2245 28.28C35.1079 27.7433 34.8162 27.3117 34.3495 26.985ZM33.9645 29.19L32.1795 32.13C31.7595 32.8533 31.1645 33.32 30.3945 33.53C29.0179 33.9033 27.5245 33.95 25.9145 33.67C23.9079 33.2967 21.7729 32.4217 19.5095 31.045C16.8495 29.435 14.0379 27.1483 11.0745 24.185C6.7812 19.8917 3.9112 15.925 2.46454 12.285C1.36787 9.53167 1.12287 7.05833 1.72954 4.865C1.9862 4.07167 2.45287 3.47667 3.12954 3.08L6.10454 1.295C6.2912 1.17833 6.5012 1.14333 6.73454 1.19C6.96787 1.23667 7.15454 1.365 7.29454 1.575L9.84953 5.425L12.0195 8.645C12.1362 8.83167 12.177 9.04167 12.142 9.275C12.107 9.50833 11.9962 9.695 11.8095 9.835L9.14954 11.9C8.75287 12.2033 8.50204 12.6058 8.39704 13.1075C8.29204 13.6092 8.36787 14.0817 8.62454 14.525L8.83454 14.91C9.34787 15.8667 9.8612 16.695 10.3745 17.395C11.2145 18.5617 12.3812 19.8917 13.8745 21.385C15.3679 22.8783 16.6979 24.045 17.8645 24.885C18.5645 25.3983 19.3929 25.9117 20.3495 26.425L20.7345 26.635C21.1779 26.8917 21.6504 26.9675 22.152 26.8625C22.6537 26.7575 23.0562 26.5067 23.3595 26.11L25.3895 23.45C25.5529 23.2633 25.7512 23.1525 25.9845 23.1175C26.2179 23.0825 26.4279 23.1233 26.6145 23.24L33.6845 27.965C33.8945 28.105 34.0229 28.2917 34.0695 28.525C34.1162 28.7583 34.0812 28.98 33.9645 29.19ZM20.1045 5.845C21.9012 5.845 23.5695 6.3 25.1095 7.21C26.6029 8.07333 27.7812 9.25167 28.6445 10.745C29.5545 12.285 30.0095 13.9533 30.0095 15.75C30.0095 15.9133 30.0679 16.0533 30.1845 16.17C30.3012 16.2867 30.4412 16.345 30.6045 16.345C30.7679 16.345 30.902 16.2867 31.007 16.17C31.112 16.0533 31.1645 15.9133 31.1645 15.75C31.1645 13.7433 30.6629 11.8767 29.6595 10.15C28.6795 8.49333 27.3495 7.175 25.6695 6.195C23.9662 5.16833 22.1112 4.655 20.1045 4.655C19.9412 4.655 19.8012 4.71333 19.6845 4.83C19.5679 4.94667 19.5095 5.08667 19.5095 5.25C19.5095 5.41333 19.5679 5.55333 19.6845 5.67C19.8012 5.78667 19.9412 5.845 20.1045 5.845ZM20.1045 9.345C21.2712 9.345 22.3445 9.63083 23.3245 10.2025C24.3045 10.7742 25.0804 11.55 25.652 12.53C26.2237 13.51 26.5095 14.5833 26.5095 15.75C26.5095 15.9133 26.5679 16.0533 26.6845 16.17C26.8012 16.2867 26.9412 16.345 27.1045 16.345C27.2679 16.345 27.402 16.2867 27.507 16.17C27.612 16.0533 27.6645 15.9133 27.6645 15.75C27.6645 14.3733 27.3262 13.1017 26.6495 11.935C25.9729 10.7683 25.057 9.84667 23.902 9.17C22.747 8.49333 21.4812 8.155 20.1045 8.155C19.9412 8.155 19.8012 8.21333 19.6845 8.33C19.5679 8.44667 19.5095 8.58667 19.5095 8.75C19.5095 8.91333 19.5679 9.05333 19.6845 9.17C19.8012 9.28667 19.9412 9.345 20.1045 9.345ZM20.1045 12.845C20.9212 12.845 21.6095 13.125 22.1695 13.685C22.7295 14.245 23.0095 14.9333 23.0095 15.75C23.0095 15.9133 23.0679 16.0533 23.1845 16.17C23.3012 16.2867 23.4412 16.345 23.6045 16.345C23.7679 16.345 23.902 16.2867 24.007 16.17C24.112 16.0533 24.1645 15.9133 24.1645 15.75C24.1645 15.0033 23.9837 14.3208 23.622 13.7025C23.2604 13.0842 22.7645 12.5883 22.1345 12.215C21.5045 11.8417 20.8279 11.655 20.1045 11.655C19.9412 11.655 19.8012 11.7133 19.6845 11.83C19.5679 11.9467 19.5095 12.0867 19.5095 12.25C19.5095 12.4133 19.5679 12.5533 19.6845 12.67C19.8012 12.7867 19.9412 12.845 20.1045 12.845Z" fill="white"/>
</g>
<defs>
<clipPath id="clip0_130_141">
<rect width="35.52" height="35" fill="white" transform="matrix(1 0 0 -1 0 35)"/>
</clipPath>
</defs>
</svg>
