<svg id="Group_28082" data-name="Group 28082" xmlns="http://www.w3.org/2000/svg" xmlns:xlink="http://www.w3.org/1999/xlink" width="41.008" height="52" viewBox="0 0 41.008 52">
  <defs>
    <clipPath id="clip-path">
      <rect id="Rectangle_622" data-name="Rectangle 622" width="41.008" height="52" fill="#ff6e00"/>
    </clipPath>
  </defs>
  <g id="Group_28081" data-name="Group 28081" clip-path="url(#clip-path)">
    <path id="Path_52650" data-name="Path 52650" d="M1.591,32.5A2.327,2.327,0,0,1,.08,30.865c-.245-1.8-.024-3.663,2.143-3.817l7.807-.007,2.029-13.127a8.513,8.513,0,0,1,7.627-6.9L19.694.781c.1-.661.473-.913,1.115-.715a43.116,43.116,0,0,1,4.615,2.308.783.783,0,0,1,.054,1.283L21.361,5.8c-.219.246-.055.812-.11,1.143a8.838,8.838,0,0,1,7.378,5.961c.967,4.673,1.563,9.429,2.323,14.144.072.107.205.089.317.1,2.371.292,5.358-.284,7.755.007a2.187,2.187,0,0,1,1.95,2.14c.212,2.251-.607,3.657-3.04,3.407V46.555c1.468-.12,2.8.363,3.015,1.968.18,1.335.007,2.94-1.438,3.437L1.81,52C.136,51.668-.134,49.893.117,48.437.38,46.911,1.7,46.43,3.112,46.555V32.5c-.469-.054-1.074.074-1.521,0M21.363,2.187V3.97l1.783-.84a6.16,6.16,0,0,0-1.783-.943M27.027,13.41a6.8,6.8,0,0,0-13.006,0Zm-9.859,5.14H13.076l-1.468,8.6h4.51Zm.524,8.6h5.559l-1.048-8.6-3.4,0Zm11.643,0-1.521-8.6H23.775l1.154,8.6ZM6.888,32.71H4.79V46.765h2.1Zm4.3,0H8.566V34.7h2.622Zm16.992,0H12.867V46.765H15.7V37.482c0-.06.148-.651.186-.758a2.582,2.582,0,0,1,2.175-1.6,31.718,31.718,0,0,1,5.3.046c.708.122,1.987,1.036,1.987,1.789v9.807H28.18Zm4.3,0H29.859V34.7h2.622Zm3.776,0h-2.1V46.765h2.1ZM11.188,36.381H8.566V38.9h2.622Zm21.292,0H29.859V38.9h2.622ZM11.188,40.471H8.566v2.517h2.622Zm21.292,0H29.859v2.517h2.622Zm-21.292,4.2H8.566V46.66h2.622Zm21.292,0H29.859V46.66h2.622Z" transform="translate(0 0)" fill="#ff6e00"/>
  </g>
</svg>
