<svg width="32" height="26" viewBox="0 0 32 26" fill="none" xmlns="http://www.w3.org/2000/svg">
<path d="M3.83639 24.6346H1.35402C0.977903 24.6346 0.658204 24.5018 0.394922 24.2363C0.131641 23.9708 0 23.6484 0 23.2691V12.8009C0 12.4216 0.131641 12.0992 0.394922 11.8337C0.658204 11.5682 0.977903 11.4354 1.35402 11.4354H3.83639C4.21251 11.4354 4.5322 11.5682 4.79549 11.8337C5.05877 12.0992 5.19041 12.4216 5.19041 12.8009V23.2691C5.19041 23.6484 5.05877 23.9708 4.79549 24.2363C4.5322 24.5018 4.21251 24.6346 3.83639 24.6346ZM1.35402 12.3457C1.2788 12.3457 1.18477 12.3837 1.07193 12.4595C0.959097 12.5354 0.90268 12.6492 0.90268 12.8009V23.2691C0.90268 23.4209 0.959097 23.5346 1.07193 23.6105C1.18477 23.6864 1.2788 23.7243 1.35402 23.7243H3.83639C3.91161 23.7243 4.00564 23.6864 4.11848 23.6105C4.23131 23.5346 4.28773 23.4209 4.28773 23.2691V12.8009C4.28773 12.6492 4.23131 12.5354 4.11848 12.4595C4.00564 12.3837 3.91161 12.3457 3.83639 12.3457H1.35402ZM19.7461 20.0832H11.7348C11.5844 20.0832 11.4716 20.0073 11.3963 19.8556C11.3211 19.7039 11.3211 19.5522 11.3963 19.4004C11.4716 19.2487 11.5844 19.1729 11.7348 19.1729H19.7461C20.047 19.1729 20.3291 19.0401 20.5924 18.7746C20.8557 18.5091 20.9873 18.2057 20.9873 17.8643C20.9873 17.523 20.8557 17.2385 20.5924 17.0109C20.3291 16.7834 20.047 16.6696 19.7461 16.6696H16.9252C15.8721 16.6696 15.0071 16.2713 14.33 15.4748C13.653 14.6783 12.8256 14.2801 11.8477 14.2801H4.73907C4.58862 14.2801 4.47579 14.2422 4.40056 14.1663C4.32534 14.0904 4.28773 13.9767 4.28773 13.8249C4.28773 13.6732 4.32534 13.5594 4.40056 13.4836C4.47579 13.4077 4.58862 13.3698 4.73907 13.3698H11.8477C13.1265 13.3698 14.1796 13.8629 15.0071 14.849C15.4584 15.38 16.0978 15.6455 16.9252 15.6455H19.7461C20.3479 15.6455 20.8557 15.8731 21.2694 16.3282C21.6831 16.7834 21.89 17.3144 21.89 17.9212C21.89 18.5281 21.6831 19.0401 21.2694 19.4573C20.8557 19.8745 20.3479 20.0832 19.7461 20.0832ZM15.9097 26C14.7814 26 13.6906 25.8104 12.6375 25.4311L4.5134 22.4726C4.43818 22.3968 4.38176 22.302 4.34415 22.1882C4.30654 22.0744 4.30654 21.9606 4.34415 21.8468C4.38176 21.733 4.45698 21.6382 4.56982 21.5624C4.68265 21.4865 4.77668 21.4865 4.8519 21.5624L12.976 24.5208C14.1044 24.9759 15.2515 25.1656 16.4175 25.0897C17.5834 25.0139 18.7306 24.7104 19.859 24.1794L31.0296 18.1488C30.5031 17.6178 29.8825 17.2764 29.1678 17.1247C28.4532 16.973 27.7574 17.0489 27.0804 17.3523L21.1001 19.5142C20.9497 19.5901 20.7992 19.5711 20.6488 19.4573C20.4984 19.3435 20.4419 19.1918 20.4795 19.0022C20.5172 18.8125 20.6112 18.6798 20.7616 18.6039L26.7419 16.442C27.5693 16.1386 28.4344 16.0817 29.3371 16.2713C30.2398 16.461 31.0296 16.8972 31.7066 17.5799L31.8195 17.6937C31.9699 17.8454 32.0263 18.054 31.9887 18.3195C31.9511 18.585 31.8195 18.7557 31.5938 18.8315L20.1975 24.9759C18.9187 25.6586 17.4894 26 15.9097 26ZM25.0494 17.9212C25.0494 17.9212 25.0118 17.9212 24.9365 17.9212C24.8613 17.9212 24.7861 17.8643 24.7109 17.7505C24.6356 17.6368 24.598 17.504 24.598 17.3523L24.7109 16.7834C24.7109 15.4179 24.2783 14.2232 23.4133 13.1991C22.5482 12.1751 21.4763 11.5113 20.1975 11.2079C18.9187 10.9044 17.6775 11.0562 16.4739 11.663C15.2703 12.2699 14.4053 13.1802 13.8787 14.3939C13.8035 14.6214 13.6906 14.7352 13.5402 14.7352C13.3897 14.7352 13.2581 14.6594 13.1453 14.5077C13.0324 14.3559 13.0136 14.2042 13.0889 14.0525C13.6906 12.6112 14.6874 11.5492 16.079 10.8665C17.4706 10.1838 18.9187 9.99416 20.4231 10.2976C21.9276 10.601 23.1688 11.3596 24.1467 12.5733C25.1246 13.787 25.6135 15.1904 25.6135 16.7834L25.5007 17.4661C25.5007 17.6178 25.4631 17.7316 25.3879 17.8074C25.3126 17.8833 25.1998 17.9212 25.0494 17.9212ZM19.2948 11.0941C19.2948 11.0941 19.2572 11.0941 19.1819 11.0941C19.1067 11.0941 19.0315 11.0372 18.9563 10.9234C18.8811 10.8096 18.8434 10.7148 18.8434 10.6389C19.0691 6.99781 19.9718 4.22903 21.5515 2.3326C22.4542 1.2706 23.5825 0.512035 24.9365 0.0568924C25.087 -0.0189646 25.2186 -0.0189646 25.3315 0.0568924C25.4443 0.132749 25.5195 0.227571 25.5571 0.341356C25.5947 0.455142 25.5759 0.568927 25.5007 0.682713C25.4255 0.796498 25.3503 0.891319 25.275 0.967176C24.0715 1.34646 23.0559 2.02917 22.2285 3.01532C20.7992 4.68417 19.9718 7.22538 19.7461 10.6389C19.7461 10.7907 19.6897 10.9044 19.5769 10.9803C19.464 11.0562 19.37 11.0941 19.2948 11.0941ZM17.0381 8.13567C16.3611 8.13567 15.7217 8.02188 15.1199 7.79431C14.2924 7.49088 13.5778 7.01678 12.976 6.37199C12.3742 5.72721 11.9605 4.9876 11.7348 4.15317C11.5844 3.9256 11.622 3.73596 11.8477 3.58425C12.5999 3.1291 13.4086 2.8636 14.2736 2.78775C15.1387 2.71189 15.985 2.82567 16.8124 3.1291C17.6399 3.43253 18.3545 3.90664 18.9563 4.55142C19.5581 5.19621 19.9718 5.93581 20.1975 6.77024C20.2727 7.07367 20.1975 7.26331 19.9718 7.33917C19.0691 7.87017 18.0912 8.13567 17.0381 8.13567ZM12.6375 4.15317C13.1641 5.5186 14.0856 6.44785 15.402 6.94092C16.7184 7.43399 17.9784 7.3771 19.1819 6.77024C18.7306 5.40481 17.8467 4.47557 16.5303 3.98249C15.2139 3.48942 13.9163 3.54632 12.6375 4.15317ZM24.2595 6.08753C23.5073 6.08753 22.8303 5.93581 22.2285 5.63239C21.6267 5.32896 21.1001 4.91174 20.6488 4.38074C20.4984 4.15317 20.4984 3.96353 20.6488 3.81182C21.1001 3.20496 21.6267 2.74982 22.2285 2.44639C22.8303 2.14296 23.5073 1.99125 24.2595 1.99125C24.9365 1.99125 25.5947 2.14296 26.2341 2.44639C26.8735 2.74982 27.3813 3.20496 27.7574 3.81182C27.9831 3.96353 27.9831 4.15317 27.7574 4.38074C27.3813 4.91174 26.8735 5.32896 26.2341 5.63239C25.5947 5.93581 24.9365 6.08753 24.2595 6.08753ZM21.6643 4.03939C22.3413 4.79796 23.2064 5.17724 24.2595 5.17724C25.2374 5.17724 26.1025 4.79796 26.8547 4.03939C26.1025 3.28082 25.2374 2.90153 24.2595 2.90153C23.2064 2.90153 22.3413 3.28082 21.6643 4.03939Z" fill="white"/>
</svg>
